G04 ================== begin FILE IDENTIFICATION RECORD ==================*
G04 Layout Name:  Controller.brd*
G04 Film Name:    Bottom_Soldermask*
G04 File Format:  Gerber RS274X*
G04 File Origin:  Cadence Allegro -unreleased*
G04 Origin Date:  Wed Jan  4 11:17:44 2023*
G04 *
G04 Layer:  VIA CLASS/SOLDERMASK_BOTTOM*
G04 Layer:  PIN/SOLDERMASK_BOTTOM*
G04 Layer:  DRC ERROR CLASS/SOLDERMASK_BOTTOM*
G04 *
G04 Offset:    (0.00 0.00)*
G04 Mirror:    No*
G04 Mode:      Positive*
G04 Rotation:  0*
G04 FullContactRelief:  No*
G04 UndefLineWidth:     0.10*
G04 ================== end FILE IDENTIFICATION RECORD ====================*
%FSLAX25Y25*MOIN*%
%IR0*IPPOS*OFA0.00000B0.00000*MIA0B0*SFA1.00000B1.00000*%
%ADD10C,.06*%
%ADD11C,.044*%
%LPD*%
G75*
G54D10*
X452900Y533700D03*
Y523700D03*
X462900Y533700D03*
Y523700D03*
X478900Y532600D03*
Y522600D03*
X508500Y511700D03*
X508700Y544400D03*
X488900Y532600D03*
X498900D03*
X508900D03*
Y522600D03*
X498900D03*
X488900D03*
X520000Y370000D03*
X530000D03*
X540000D03*
X541000Y419300D03*
X531000D03*
X521000D03*
Y449300D03*
X531000D03*
X541000D03*
X520800Y459900D03*
X530800D03*
X538900Y511700D03*
X528900D03*
X518700Y544400D03*
X528700D03*
X518900Y532600D03*
X528900D03*
X538900D03*
Y522600D03*
X528900D03*
X518900D03*
X550000Y370000D03*
X560000D03*
X571000Y409400D03*
Y419300D03*
X561000D03*
X551000D03*
Y449300D03*
X561000D03*
X571000D03*
X548900Y511700D03*
X548700Y544400D03*
X548900Y532600D03*
X558900D03*
X568900D03*
Y522600D03*
X558900D03*
X548900D03*
X600000Y370000D03*
X600900Y408600D03*
X601000Y419300D03*
X591000D03*
X581000D03*
Y449300D03*
X591000D03*
X601000D03*
X591100Y460200D03*
X601100D03*
X600900Y484800D03*
X590900D03*
X599100Y543800D03*
X589100D03*
X579100D03*
X578900Y532600D03*
X588900D03*
X598900D03*
Y522600D03*
X588900D03*
X578900D03*
X610000Y370000D03*
X620000D03*
X630000D03*
X610900Y408600D03*
X620900D03*
X630900D03*
X631000Y419300D03*
X621000D03*
X611000D03*
Y449300D03*
X621000D03*
X631000D03*
X630900Y484800D03*
X620900D03*
X610900D03*
X608900Y511400D03*
X618900D03*
X628900D03*
X628700Y544200D03*
X609100Y543800D03*
X608900Y532600D03*
X618900D03*
X628900D03*
Y522600D03*
X618900D03*
X608900D03*
X640000Y370000D03*
X650000D03*
X660000D03*
X640900Y408600D03*
X650900D03*
X651000Y419300D03*
X641000D03*
Y449300D03*
X651000D03*
X639900Y470500D03*
Y460500D03*
X651000Y459400D03*
X640900Y484800D03*
X638900Y511400D03*
X648900D03*
X658900D03*
X649000Y544400D03*
X659000D03*
X638900Y532600D03*
X648900D03*
X658900D03*
Y522600D03*
X648900D03*
X638900D03*
X669000Y544400D03*
X668900Y532600D03*
Y522600D03*
G54D11*
X535000Y362700D03*
X581600Y397400D03*
X600600Y506300D03*
M02*
