G04 ================== begin FILE IDENTIFICATION RECORD ==================*
G04 Layout Name:  Controller.brd*
G04 Film Name:    BOTTOM*
G04 File Format:  Gerber RS274X*
G04 File Origin:  Cadence Allegro -unreleased*
G04 Origin Date:  Wed Jan  4 11:17:43 2023*
G04 *
G04 Layer:  ETCH/BOTTOM*
G04 Layer:  PIN/BOTTOM*
G04 Layer:  VIA CLASS/BOTTOM*
G04 *
G04 Offset:    (0.00 0.00)*
G04 Mirror:    No*
G04 Mode:      Positive*
G04 Rotation:  0*
G04 FullContactRelief:  No*
G04 UndefLineWidth:     0.10*
G04 ================== end FILE IDENTIFICATION RECORD ====================*
%FSLAX25Y25*MOIN*%
%IR0*IPPOS*OFA0.00000B0.00000*MIA0B0*SFA1.00000B1.00000*%
%ADD12C,.024*%
%ADD10C,.06*%
%ADD11C,.17*%
%ADD13C,.02*%
%ADD14C,.03*%
%ADD15C,.025*%
%ADD17C,.07004*%
%ADD16C,.18004*%
G75*
%LPD*%
G75*
G36*
G01X440002Y549998D02*
X679998D01*
Y350002D01*
X440002D01*
Y549998D01*
G37*
%LPC*%
G75*
G36*
G01X636478Y395898D02*
X582401D01*
G02X581600Y395698I-801J1502D01*
G02Y399102I0J1702D01*
G02X582401Y398902I0J-1702D01*
G01X637100D01*
G02X638162Y398462I0J-1502D01*
G01X640562Y396062D01*
G02X641002Y395000I-1062J-1062D01*
G01Y375622D01*
X641062Y375562D01*
G02X641502Y374500I-1062J-1062D01*
G01Y373164D01*
G02X643502Y370000I-1503J-3164D01*
G02X636498I-3502J0D01*
G02X638498Y373164I3503J0D01*
G01Y373878D01*
X638438Y373938D01*
G02X637998Y375000I1062J1062D01*
G01Y394378D01*
X636478Y395898D01*
G37*
G36*
G01X587148Y497600D02*
Y519567D01*
G02X585398Y522600I1753J3033D01*
G02X592402I3502J0D01*
G02X590652Y519567I-3503J0D01*
G01Y498325D01*
X591125Y497852D01*
X609000D01*
G02X610238Y497338I-1J-1751D01*
G01X612238Y495338D01*
G02X612752Y494100I-1237J-1239D01*
G01Y489650D01*
G02X612662Y489097I-1752J1D01*
G01X612652Y489066D01*
Y487833D01*
G02X614402Y484800I-1753J-3033D01*
G02X607398I-3502J0D01*
G02X609148Y487833I3503J0D01*
G01Y489550D01*
G02X609238Y490103I1752J-1D01*
G01X609248Y490134D01*
Y493375D01*
X608275Y494348D01*
X590400D01*
G02X589162Y494862I1J1751D01*
G01X587662Y496362D01*
G02X587148Y497600I1237J1239D01*
G37*
G36*
G01X463807Y520316D02*
X463699Y520290D01*
G02X462900Y520198I-797J3410D01*
G02X466402Y523700I0J3502D01*
G02X466310Y522901I-3502J-2D01*
G01X466284Y522793D01*
X475125Y513952D01*
X485075D01*
X487148Y516025D01*
Y519567D01*
G02X485398Y522600I1753J3033D01*
G02X492402I3502J0D01*
G02X490652Y519567I-3503J0D01*
G01Y515300D01*
G02X490651Y515295I-1685J334D01*
G03X491334Y515011I400J-1D01*
G01X493790Y517466D01*
Y519241D01*
G02X494303Y520479I1750J0D01*
G01X495516Y521693D01*
X495490Y521801D01*
G02X495398Y522600I3410J797D01*
G02X498900Y519098I3502J0D01*
G02X498101Y519190I-2J3502D01*
G01X497993Y519216D01*
X497292Y518516D01*
Y516741D01*
G02X496779Y515503I-1750J0D01*
G01X488238Y506962D01*
G02X487000Y506448I-1239J1237D01*
G01X468400D01*
G02X467162Y506962I1J1751D01*
G01X453807Y520316D01*
X453699Y520290D01*
G02X452900Y520198I-797J3410D01*
G02X456402Y523700I0J3502D01*
G02X456310Y522901I-3502J-2D01*
G01X456284Y522793D01*
X469125Y509952D01*
X486275D01*
X486658Y510335D01*
X486432Y510562D01*
X486317Y510526D01*
G02X485800Y510448I-517J1674D01*
G01X474400D01*
G02X473162Y510962I1J1751D01*
G01X463807Y520316D01*
G37*
G36*
G01X616772Y508619D02*
G02X615398Y511400I2127J2781D01*
G02X622402I3502J0D01*
G02X619981Y508069I-3502J0D01*
G03X619824Y507402I123J-381D01*
G02X619838Y507388I-1231J-1245D01*
G01X622138Y505088D01*
G02X622652Y503850I-1237J-1239D01*
G01Y487833D01*
G02X624402Y484800I-1753J-3033D01*
G02X617398I-3502J0D01*
G02X619148Y487833I3503J0D01*
G01Y503125D01*
X617875Y504398D01*
X606725D01*
G02X606052Y504533I1J1752D01*
G01X606015Y504548D01*
X600600D01*
G02Y508052I0J1752D01*
G01X606575D01*
G02X607003Y507998I-4J-1752D01*
G03X607152Y508366I50J194D01*
G02X605398Y511400I1747J3034D01*
G02X612402I3502J0D01*
G02X611028Y508619I-3501J0D01*
G03X611272Y507902I244J-317D01*
G01X616528D01*
G03X616772Y508619I0J400D01*
G37*
G36*
G01X559961Y529263D02*
G02X558900Y529098I-1062J3337D01*
G02X562402Y532600I0J3502D01*
G02X562237Y531539I-3502J1D01*
G01X562201Y531423D01*
X564962Y528662D01*
G02X565402Y527600I-1062J-1062D01*
G01Y524972D01*
G03X566119Y524728I400J0D01*
G02X568900Y526102I2781J-2127D01*
G02Y519098I0J-3502D01*
G02X566119Y520472I0J3501D01*
G03X565402Y520228I-317J-244D01*
G01Y501322D01*
X586622Y480102D01*
X634078D01*
X637599Y483623D01*
X637563Y483739D01*
G02X637398Y484800I3337J1062D01*
G02X640900Y481298I3502J0D01*
G02X639839Y481463I1J3502D01*
G01X639723Y481499D01*
X635762Y477538D01*
G02X634700Y477098I-1062J1062D01*
G01X587502D01*
Y474500D01*
G02X587062Y473438I-1502J0D01*
G01X583162Y469538D01*
G02X582100Y469098I-1062J1062D01*
G01X517822D01*
X514102Y465378D01*
Y428322D01*
X519823Y422601D01*
X519939Y422637D01*
G02X521000Y422802I1062J-3337D01*
G02X523850Y421335I0J-3502D01*
G03X524211Y421477I163J116D01*
G02X524198Y421672I1489J197D01*
G01Y430200D01*
G02X524638Y431262I1502J0D01*
G01X534498Y441122D01*
Y446928D01*
G03X533781Y447172I-400J0D01*
G02X531000Y445798I-2781J2127D01*
G02Y452802I0J3502D01*
G02X533781Y451428I0J-3501D01*
G03X534498Y451672I317J244D01*
G01Y455000D01*
G02X534938Y456062I1502J0D01*
G01X536353Y457477D01*
G02X537415Y457916I1061J-1062D01*
G01X546585D01*
G02X547647Y457477I1J-1501D01*
G01X550462Y454662D01*
G02X550902Y453600I-1062J-1062D01*
G01Y453001D01*
G03X551096Y452801I200J0D01*
G02X554502Y449300I-96J-3501D01*
G02X547498I-3502J0D01*
G02X547898Y450926I3502J1D01*
G01Y452978D01*
X545963Y454914D01*
X538037D01*
X537502Y454378D01*
Y451672D01*
G03X538219Y451428I400J0D01*
G02X541000Y452802I2781J-2127D01*
G02X544502Y449300I0J-3502D01*
G02X542502Y446136I-3503J0D01*
G01Y432100D01*
G02X542062Y431038I-1502J0D01*
G01X537502Y426478D01*
Y421672D01*
G03X538219Y421428I400J0D01*
G02X541000Y422802I2781J-2127D01*
G02X544502Y419300I0J-3502D01*
G02X542502Y416136I-3503J0D01*
G01Y381400D01*
G02X542062Y380338I-1502J0D01*
G01X536502Y374778D01*
Y372372D01*
G03X537219Y372128I400J0D01*
G02X538498Y373164I2782J-2127D01*
G01Y374700D01*
G02X538938Y375762I1502J0D01*
G01X549998Y386822D01*
Y397700D01*
G02X550438Y398762I1502J0D01*
G01X559498Y407822D01*
Y416136D01*
G02X557498Y419300I1503J3164D01*
G02X561000Y422802I3502J0D01*
G02X563781Y421428I0J-3501D01*
G03X564498Y421672I317J244D01*
G01Y443678D01*
X562177Y445999D01*
X562061Y445963D01*
G02X561000Y445798I-1062J3337D01*
G02X564502Y449300I0J3502D01*
G02X564337Y448239I-3502J1D01*
G01X564301Y448123D01*
X567062Y445362D01*
G02X567502Y444300I-1062J-1062D01*
G01Y421672D01*
G03X568219Y421428I400J0D01*
G02X573781I2781J-2127D01*
G03X574498Y421672I317J244D01*
G01Y443678D01*
X572177Y445999D01*
X572061Y445963D01*
G02X571000Y445798I-1062J3337D01*
G02X574502Y449300I0J3502D01*
G02X574337Y448239I-3502J1D01*
G01X574301Y448123D01*
X577062Y445362D01*
G02X577502Y444300I-1062J-1062D01*
G01Y421672D01*
G03X578219Y421428I400J0D01*
G02X581000Y422802I2781J-2127D01*
G02Y415798I0J-3502D01*
G02X578219Y417172I0J3501D01*
G03X577502Y416928I-317J-244D01*
G01Y376522D01*
X582222Y371802D01*
X595200D01*
G02X596100Y371502I-1J-1502D01*
G01X596836D01*
G02X600000Y373502I3164J-1503D01*
G02Y366498I0J-3502D01*
G02X596836Y368498I0J3503D01*
G01X595500D01*
G02X594600Y368798I1J1502D01*
G01X581600D01*
G02X580538Y369238I0J1502D01*
G01X574938Y374838D01*
G02X574498Y375900I1062J1062D01*
G01Y407028D01*
G03X573781Y407272I-400J0D01*
G02X568219I-2781J2127D01*
G03X567502Y407028I-317J-244D01*
G01Y378822D01*
X582222Y364102D01*
X601978D01*
X606699Y368823D01*
X606663Y368939D01*
G02X606498Y370000I3337J1062D01*
G02X610000Y366498I3502J0D01*
G02X608939Y366663I1J3502D01*
G01X608823Y366699D01*
X603662Y361538D01*
G02X602600Y361098I-1062J1062D01*
G01X581600D01*
G02X580538Y361538I0J1502D01*
G01X564938Y377138D01*
G02X564498Y378200I1062J1062D01*
G01Y416928D01*
G03X563781Y417172I-400J0D01*
G02X562502Y416136I-2782J2127D01*
G01Y407200D01*
G02X562062Y406138I-1502J0D01*
G01X553002Y397078D01*
Y386200D01*
G02X552562Y385138I-1502J0D01*
G01X541502Y374078D01*
Y373164D01*
G02X543502Y370000I-1503J-3164D01*
G02X540000Y366498I-3502J0D01*
G02X537219Y367872I0J3501D01*
G03X536502Y367628I-317J-244D01*
G01Y363501D01*
G02X536702Y362700I-1502J-801D01*
G02X533298I-1702J0D01*
G02X533498Y363501I1702J0D01*
G01Y367628D01*
G03X532781Y367872I-400J0D01*
G02X527219I-2781J2127D01*
G03X526502Y367628I-317J-244D01*
G01Y362522D01*
X529822Y359202D01*
X607078D01*
X616699Y368823D01*
X616663Y368939D01*
G02X616498Y370000I3337J1062D01*
G02X620000Y366498I3502J0D01*
G02X618939Y366663I1J3502D01*
G01X618823Y366699D01*
X608762Y356638D01*
G02X607700Y356198I-1062J1062D01*
G01X529200D01*
G02X528138Y356638I0J1502D01*
G01X523938Y360838D01*
G02X523498Y361900I1062J1062D01*
G01Y367628D01*
G03X522781Y367872I-400J0D01*
G02X520000Y366498I-2781J2127D01*
G02X516498Y370000I0J3502D01*
G02X518498Y373164I3503J0D01*
G01Y395400D01*
G02X518938Y396462I1502J0D01*
G01X524498Y402022D01*
Y416928D01*
G03X523781Y417172I-400J0D01*
G02X521000Y415798I-2781J2127D01*
G02X517498Y419300I0J3502D01*
G02X517663Y420361I3502J-1D01*
G01X517699Y420477D01*
X511538Y426638D01*
G02X511098Y427700I1062J1062D01*
G01Y466000D01*
G02X511538Y467062I1502J0D01*
G01X516138Y471662D01*
G02X517200Y472102I1062J-1062D01*
G01X581478D01*
X584498Y475122D01*
Y477978D01*
X562838Y499638D01*
G02X562398Y500700I1062J1062D01*
G01Y520228D01*
G03X561681Y520472I-400J0D01*
G02X558900Y519098I-2781J2127D01*
G02Y526102I0J3502D01*
G02X561681Y524728I0J-3501D01*
G03X562398Y524972I317J244D01*
G01Y526978D01*
X560077Y529299D01*
X559961Y529263D01*
G37*
G54D17*
X578900Y522600D03*
X588900Y532600D03*
X598900D03*
X628900Y522600D03*
X618900D03*
X508900D03*
X538900D03*
X658900D03*
X578900Y532600D03*
X548900D03*
Y522600D03*
X668900Y532600D03*
X658900D03*
X648900Y522600D03*
X528900Y532600D03*
Y522600D03*
X648900Y532600D03*
X518900D03*
X508900D03*
X638900Y522600D03*
X628900Y532600D03*
X608900D03*
Y522600D03*
X668900D03*
X638900Y532600D03*
X618900D03*
X598900Y522600D03*
X568900Y532600D03*
X538900D03*
X518900Y522600D03*
X498900Y532600D03*
X488900D03*
X478900D03*
Y522600D03*
X641000Y419300D03*
X631000D03*
X621000D03*
X551000D03*
X521000Y449300D03*
X611000Y419300D03*
X601000D03*
X611000Y449300D03*
X621000D03*
X631000D03*
X641000D03*
X651000D03*
Y419300D03*
X581000Y449300D03*
X591000Y419300D03*
X601000Y449300D03*
X591000D03*
X630000Y370000D03*
X650000D03*
X660000D03*
X550000D03*
X560000D03*
X600900Y408600D03*
X610900D03*
X620900D03*
X630900D03*
X640900D03*
X650900D03*
X630900Y484800D03*
X600900D03*
X590900D03*
X628900Y511400D03*
X638900D03*
X648900D03*
X658900D03*
X609100Y543800D03*
X599100D03*
X589100D03*
X579100D03*
X651000Y459400D03*
X508500Y511700D03*
X628700Y544200D03*
X548700Y544400D03*
X548900Y511700D03*
X538900D03*
X528900D03*
X649000Y544400D03*
X659000D03*
X669000D03*
X508700D03*
X518700D03*
X528700D03*
X591100Y460200D03*
X601100D03*
X639900Y470500D03*
Y460500D03*
X520800Y459900D03*
X530800D03*
X452900Y533700D03*
X462900D03*
G54D16*
X495900Y375900D03*
X659600Y488900D03*
X664500Y398100D03*
X458800Y480300D03*
%LPD*%
G75*
G36*
G01X527502Y401400D02*
Y416928D01*
G02X528219Y417172I400J0D01*
G03X529498Y416136I2782J2127D01*
G01Y387822D01*
X523938Y382262D01*
G03X523498Y381200I1062J-1062D01*
G01Y372372D01*
G02X522781Y372128I-400J0D01*
G03X521502Y373164I-2782J-2127D01*
G01Y394778D01*
X527062Y400338D01*
G03X527502Y401400I-1062J1062D01*
G37*
G36*
G01X532502Y416136D02*
G03X534120Y417710I-1503J3163D01*
G01X534176Y417819D01*
X534498D01*
Y417228D01*
G03X534938Y416166I1502J0D01*
G01X535198Y415906D01*
Y384922D01*
X529138Y378862D01*
G03X528698Y377800I1062J-1062D01*
G01Y375249D01*
G03X528498Y374500I1303J-749D01*
G01Y373164D01*
G03X527219Y372128I1503J-3163D01*
G02X526502Y372372I-317J244D01*
G01Y380578D01*
X532062Y386138D01*
G03X532502Y387200I-1062J1062D01*
G01Y416136D01*
G37*
G36*
G01X538202Y416528D02*
G03X538196Y416652I-1501J-11D01*
G02X538536Y416811I199J17D01*
G03X539498Y416136I2464J2489D01*
G01Y382022D01*
X533938Y376462D01*
G03X533498Y375400I1062J-1062D01*
G01Y372372D01*
G02X532781Y372128I-400J0D01*
G03X531502Y373164I-2782J-2127D01*
G01Y373950D01*
X531525Y373994D01*
G03X531702Y374700I-1325J707D01*
G01Y377178D01*
X537762Y383238D01*
G03X538202Y384300I-1062J1062D01*
G01Y416528D01*
G37*
G36*
G01X537502Y440500D02*
Y446928D01*
G02X538219Y447172I400J0D01*
G03X539498Y446136I2782J2127D01*
G01Y432722D01*
X534938Y428162D01*
G03X534498Y427100I1062J-1062D01*
G01Y421672D01*
G02X533781Y421428I-400J0D01*
G03X531000Y422802I-2781J-2127D01*
G03X527880Y420890I0J-3502D01*
G01X527824Y420781D01*
X527502D01*
Y421372D01*
G03X527202Y422272I-1502J-1D01*
G01Y429578D01*
X537062Y439438D01*
G03X537502Y440500I-1062J1062D01*
G37*
G36*
G01X568219Y417172D02*
G03X573781I2781J2127D01*
G02X574498Y416928I317J-244D01*
G01Y411772D01*
G02X573781Y411528I-400J0D01*
G03X568219I-2781J-2127D01*
G02X567502Y411772I-317J244D01*
G01Y416928D01*
G02X568219Y417172I400J0D01*
G37*
G54D10*
X452900Y533700D03*
Y523700D03*
X462900Y533700D03*
Y523700D03*
X478900Y532600D03*
Y522600D03*
X508500Y511700D03*
X508700Y544400D03*
X488900Y532600D03*
X498900D03*
X508900D03*
Y522600D03*
X498900D03*
X488900D03*
X520000Y370000D03*
X530000D03*
X540000D03*
X541000Y419300D03*
X531000D03*
X521000D03*
Y449300D03*
X531000D03*
X541000D03*
X520800Y459900D03*
X530800D03*
X538900Y511700D03*
X528900D03*
X518700Y544400D03*
X528700D03*
X518900Y532600D03*
X528900D03*
X538900D03*
Y522600D03*
X528900D03*
X518900D03*
X550000Y370000D03*
X560000D03*
X571000Y409400D03*
Y419300D03*
X561000D03*
X551000D03*
Y449300D03*
X561000D03*
X571000D03*
X548900Y511700D03*
X548700Y544400D03*
X548900Y532600D03*
X558900D03*
X568900D03*
Y522600D03*
X558900D03*
X548900D03*
X600000Y370000D03*
X600900Y408600D03*
X601000Y419300D03*
X591000D03*
X581000D03*
Y449300D03*
X591000D03*
X601000D03*
X591100Y460200D03*
X601100D03*
X600900Y484800D03*
X590900D03*
X599100Y543800D03*
X589100D03*
X579100D03*
X578900Y532600D03*
X588900D03*
X598900D03*
Y522600D03*
X588900D03*
X578900D03*
X610000Y370000D03*
X620000D03*
X630000D03*
X610900Y408600D03*
X620900D03*
X630900D03*
X631000Y419300D03*
X621000D03*
X611000D03*
Y449300D03*
X621000D03*
X631000D03*
X630900Y484800D03*
X620900D03*
X610900D03*
X608900Y511400D03*
X618900D03*
X628900D03*
X628700Y544200D03*
X609100Y543800D03*
X608900Y532600D03*
X618900D03*
X628900D03*
Y522600D03*
X618900D03*
X608900D03*
X640000Y370000D03*
X650000D03*
X660000D03*
X640900Y408600D03*
X650900D03*
X651000Y419300D03*
X641000D03*
Y449300D03*
X651000D03*
X639900Y470500D03*
Y460500D03*
X651000Y459400D03*
X640900Y484800D03*
X638900Y511400D03*
X648900D03*
X658900D03*
X649000Y544400D03*
X659000D03*
X638900Y532600D03*
X648900D03*
X658900D03*
Y522600D03*
X648900D03*
X638900D03*
X669000Y544400D03*
X668900Y532600D03*
Y522600D03*
G54D11*
X458800Y480300D03*
X495900Y375900D03*
X664500Y398100D03*
X659600Y488900D03*
G54D12*
X535000Y362700D03*
X581600Y397400D03*
X600600Y506300D03*
G54D13*
G01X620000Y370000D02*
X607700Y357700D01*
X529200D01*
X525000Y361900D01*
Y381200D01*
X531000Y387200D01*
Y419300D01*
G01X551000Y449300D02*
X549400Y450900D01*
Y453600D01*
X546585Y456415D01*
X537415D01*
X536000Y455000D01*
Y440500D01*
X525700Y430200D01*
Y421672D01*
X526000Y421372D01*
Y401400D01*
X520000Y395400D01*
Y370000D01*
G01X530000D02*
Y374500D01*
X530200Y374700D01*
Y377800D01*
X536700Y384300D01*
Y416528D01*
X536000Y417228D01*
Y427100D01*
X541000Y432100D01*
Y449300D01*
G01X535000Y362700D02*
Y375400D01*
X541000Y381400D01*
Y419300D01*
G01X540000Y370000D02*
Y374700D01*
X551500Y386200D01*
Y397700D01*
X561000Y407200D01*
Y419300D01*
G01X521000D02*
X512600Y427700D01*
Y466000D01*
X517200Y470600D01*
X582100D01*
X586000Y474500D01*
Y478600D01*
G01X561000Y449300D02*
X566000Y444300D01*
Y378200D01*
X581600Y362600D01*
X602600D01*
X610000Y370000D01*
G01X600000D02*
X595500D01*
X595200Y370300D01*
X581600D01*
X576000Y375900D01*
Y444300D01*
X571000Y449300D01*
G01X586000Y478600D02*
X563900Y500700D01*
Y527600D01*
X558900Y532600D01*
G01X640000Y370000D02*
Y374500D01*
X639500Y375000D01*
Y395000D01*
X637100Y397400D01*
X581600D01*
G01X640900Y484800D02*
X634700Y478600D01*
X586000D01*
G54D14*
G01X449198Y533700D02*
X452900D01*
G01Y529998D02*
Y533700D01*
G01D02*
Y537402D01*
G01Y533700D02*
X456602D01*
G01X498900Y528898D02*
Y532600D01*
G01D02*
Y536302D01*
G01X495198Y532600D02*
X498900D01*
G01D02*
X502602D01*
G01X538900Y528898D02*
Y532600D01*
G01D02*
Y536302D01*
G01X535198Y532600D02*
X538900D01*
G01D02*
X542602D01*
G01X518900Y518898D02*
Y522600D01*
G01D02*
Y526302D01*
G01X515198Y522600D02*
X518900D01*
G01D02*
X522602D01*
G01X550000Y366298D02*
Y370000D01*
G01D02*
Y373702D01*
G01X546298Y370000D02*
X550000D01*
G01D02*
X553702D01*
G01X568900Y528898D02*
Y532600D01*
G01D02*
Y536302D01*
G01X565198Y532600D02*
X568900D01*
G01D02*
X572602D01*
G01X591000Y415598D02*
Y419300D01*
G01D02*
Y423002D01*
G01X587298Y419300D02*
X591000D01*
G01D02*
X594702D01*
G01X581000Y445598D02*
Y449300D01*
G01D02*
Y453002D01*
G01X577298Y449300D02*
X581000D01*
G01D02*
X584702D01*
G01X600900Y484800D02*
Y488502D01*
G01X597198Y484800D02*
X600900D01*
G01D02*
X604602D01*
G01X598900Y518898D02*
Y522600D01*
G01D02*
Y526302D01*
G01X595198Y522600D02*
X598900D01*
G01D02*
X602602D01*
G01X618900Y528898D02*
Y532600D01*
G01D02*
Y536302D01*
G01X615198Y532600D02*
X618900D01*
G01D02*
X622602D01*
G01X650000Y366298D02*
Y370000D01*
G01D02*
Y373702D01*
G01X646298Y370000D02*
X650000D01*
G01D02*
X653702D01*
G01X639900Y466798D02*
Y470500D01*
G01D02*
Y474202D01*
G01X636198Y470500D02*
X639900D01*
G01D02*
X643602D01*
G01X638900Y528898D02*
Y532600D01*
G01D02*
Y536302D01*
G01X635198Y532600D02*
X638900D01*
G01D02*
X642602D01*
G01X668900Y518898D02*
Y522600D01*
G01D02*
Y526302D01*
G01X665198Y522600D02*
X668900D01*
G01D02*
X672602D01*
G54D15*
G01X452900Y523700D02*
X468400Y508200D01*
X487000D01*
X495541Y516741D01*
Y519241D01*
X498900Y522600D01*
G01X462900Y523700D02*
X474400Y512200D01*
X485800D01*
X488900Y515300D01*
Y522600D01*
G01X620900Y484800D02*
Y503850D01*
X618600Y506150D01*
X606725D01*
X606575Y506300D01*
X600600D01*
G01X610900Y484800D02*
Y489550D01*
X611000Y489650D01*
Y494100D01*
X609000Y496100D01*
X590400D01*
X588900Y497600D01*
Y522600D01*
M02*
