G04 ================== begin FILE IDENTIFICATION RECORD ==================*
G04 Layout Name:  Controller.brd*
G04 Film Name:    TOP*
G04 File Format:  Gerber RS274X*
G04 File Origin:  Cadence Allegro -unreleased*
G04 Origin Date:  Wed Jan  4 11:17:43 2023*
G04 *
G04 Layer:  ETCH/TOP*
G04 Layer:  PIN/TOP*
G04 Layer:  VIA CLASS/TOP*
G04 *
G04 Offset:    (0.00 0.00)*
G04 Mirror:    No*
G04 Mode:      Positive*
G04 Rotation:  0*
G04 FullContactRelief:  No*
G04 UndefLineWidth:     0.10*
G04 ================== end FILE IDENTIFICATION RECORD ====================*
%FSLAX25Y25*MOIN*%
%IR0*IPPOS*OFA0.00000B0.00000*MIA0B0*SFA1.00000B1.00000*%
%ADD12C,.024*%
%ADD10C,.06*%
%ADD11C,.17*%
%ADD13C,.02*%
%ADD14C,.03*%
%ADD15C,.025*%
%ADD17C,.07004*%
%ADD16C,.18004*%
G75*
%LPD*%
G75*
G36*
G01X679998Y350002D02*
X440002D01*
Y549998D01*
X679998D01*
Y350002D01*
G37*
%LPC*%
G75*
G36*
G01X619578Y361702D02*
X626699Y368823D01*
X626663Y368939D01*
G02X626498Y370000I3337J1062D01*
G02X630000Y366498I3502J0D01*
G02X628939Y366663I1J3502D01*
G01X628823Y366699D01*
X621262Y359138D01*
G02X620200Y358698I-1062J1062D01*
G01X537500D01*
G02X536438Y359138I0J1502D01*
G01X534506Y361071D01*
X534461Y361086D01*
G02X533298Y362700I538J1614D01*
G02X535000Y364402I1702J0D01*
G02X536614Y363239I0J-1701D01*
G01X536629Y363194D01*
X538122Y361702D01*
X619578D01*
G37*
G36*
G01X549498Y406500D02*
Y416136D01*
G02X547498Y419300I1503J3164D01*
G02X554502I3502J0D01*
G02X552502Y416136I-3503J0D01*
G01Y407122D01*
X560722Y398902D01*
X580799D01*
G02X581600Y399102I801J-1502D01*
G02Y395698I0J-1702D01*
G02X580799Y395898I0J1702D01*
G01X560100D01*
G02X559038Y396338I0J1502D01*
G01X549938Y405438D01*
G02X549498Y406500I1062J1062D01*
G37*
G36*
G01X569248Y412433D02*
Y416267D01*
G02X567498Y419300I1753J3033D01*
G02X574502I3502J0D01*
G02X572752Y416267I-3503J0D01*
G01Y412433D01*
G02X574502Y409400I-1753J-3033D01*
G02X567498I-3502J0D01*
G02X569248Y412433I3503J0D01*
G37*
G36*
G01X599248Y413934D02*
Y416267D01*
G02X597498Y419300I1753J3033D01*
G02X604502I3502J0D01*
G02X602752Y416267I-3503J0D01*
G01Y413450D01*
G02X602662Y412897I-1752J1D01*
G01X602652Y412866D01*
Y411633D01*
G02X604402Y408600I-1753J-3033D01*
G02X597398I-3502J0D01*
G02X599148Y411633I3503J0D01*
G01Y413350D01*
G02X599238Y413903I1752J-1D01*
G01X599248Y413934D01*
G37*
G36*
G01X609248D02*
Y416267D01*
G02X607498Y419300I1753J3033D01*
G02X614502I3502J0D01*
G02X612752Y416267I-3503J0D01*
G01Y413450D01*
G02X612662Y412897I-1752J1D01*
G01X612652Y412866D01*
Y411633D01*
G02X614402Y408600I-1753J-3033D01*
G02X607398I-3502J0D01*
G02X609148Y411633I3503J0D01*
G01Y413350D01*
G02X609238Y413903I1752J-1D01*
G01X609248Y413934D01*
G37*
G36*
G01X619248D02*
Y416267D01*
G02X617498Y419300I1753J3033D01*
G02X624502I3502J0D01*
G02X622752Y416267I-3503J0D01*
G01Y413450D01*
G02X622662Y412897I-1752J1D01*
G01X622652Y412866D01*
Y411633D01*
G02X624402Y408600I-1753J-3033D01*
G02X617398I-3502J0D01*
G02X619148Y411633I3503J0D01*
G01Y413350D01*
G02X619238Y413903I1752J-1D01*
G01X619248Y413934D01*
G37*
G36*
G01X629248D02*
Y416267D01*
G02X627498Y419300I1753J3033D01*
G02X634502I3502J0D01*
G02X632752Y416267I-3503J0D01*
G01Y413450D01*
G02X632662Y412897I-1752J1D01*
G01X632652Y412866D01*
Y411633D01*
G02X634402Y408600I-1753J-3033D01*
G02X627398I-3502J0D01*
G02X629148Y411633I3503J0D01*
G01Y413350D01*
G02X629238Y413903I1752J-1D01*
G01X629248Y413934D01*
G37*
G36*
G01X639248D02*
Y416267D01*
G02X637498Y419300I1753J3033D01*
G02X644502I3502J0D01*
G02X642752Y416267I-3503J0D01*
G01Y413450D01*
G02X642662Y412897I-1752J1D01*
G01X642652Y412866D01*
Y411633D01*
G02X644402Y408600I-1753J-3033D01*
G02X637398I-3502J0D01*
G02X639148Y411633I3503J0D01*
G01Y413350D01*
G02X639238Y413903I1752J-1D01*
G01X639248Y413934D01*
G37*
G36*
G01X649248D02*
Y416267D01*
G02X647498Y419300I1753J3033D01*
G02X654502I3502J0D01*
G02X652752Y416267I-3503J0D01*
G01Y413450D01*
G02X652662Y412897I-1752J1D01*
G01X652652Y412866D01*
Y411633D01*
G02X654402Y408600I-1753J-3033D01*
G02X647398I-3502J0D01*
G02X649148Y411633I3503J0D01*
G01Y413350D01*
G02X649238Y413903I1752J-1D01*
G01X649248Y413934D01*
G37*
G36*
G01Y452333D02*
Y456367D01*
G02X647498Y459400I1753J3033D01*
G02X654502I3502J0D01*
G02X652752Y456367I-3503J0D01*
G01Y452333D01*
G02X654502Y449300I-1753J-3033D01*
G02X647498I-3502J0D01*
G02X649248Y452333I3503J0D01*
G37*
G36*
G01X519048Y455150D02*
Y456867D01*
G02X517298Y459900I1753J3033D01*
G02X524302I3502J0D01*
G02X522552Y456867I-3503J0D01*
G01Y455763D01*
G02X522752Y454950I-1552J-813D01*
G01Y452333D01*
G02X524502Y449300I-1753J-3033D01*
G02X517498I-3502J0D01*
G02X519248Y452333I3503J0D01*
G01Y454337D01*
G02X519048Y455150I1552J813D01*
G37*
G36*
G01X529048D02*
Y456867D01*
G02X527298Y459900I1753J3033D01*
G02X534302I3502J0D01*
G02X532552Y456867I-3503J0D01*
G01Y455763D01*
G02X532752Y454950I-1552J-813D01*
G01Y452333D01*
G02X534502Y449300I-1753J-3033D01*
G02X527498I-3502J0D01*
G02X529248Y452333I3503J0D01*
G01Y454337D01*
G02X529048Y455150I1552J813D01*
G37*
G36*
G01X589348Y455934D02*
Y457167D01*
G02X587598Y460200I1753J3033D01*
G02X594602I3502J0D01*
G02X592852Y457167I-3503J0D01*
G01Y455450D01*
G02X592762Y454897I-1752J1D01*
G01X592752Y454866D01*
Y452333D01*
G02X594502Y449300I-1753J-3033D01*
G02X587498I-3502J0D01*
G02X589248Y452333I3503J0D01*
G01Y455350D01*
G02X589338Y455903I1752J-1D01*
G01X589348Y455934D01*
G37*
G36*
G01X599348D02*
Y457167D01*
G02X597598Y460200I1753J3033D01*
G02X604602I3502J0D01*
G02X602852Y457167I-3503J0D01*
G01Y455450D01*
G02X602762Y454897I-1752J1D01*
G01X602752Y454866D01*
Y452333D01*
G02X604502Y449300I-1753J-3033D01*
G02X597498I-3502J0D01*
G02X599248Y452333I3503J0D01*
G01Y455350D01*
G02X599338Y455903I1752J-1D01*
G01X599348Y455934D01*
G37*
G36*
G01X638148Y455750D02*
Y457467D01*
G02X636398Y460500I1753J3033D01*
G02X643402I3502J0D01*
G02X641652Y457467I-3503J0D01*
G01Y456475D01*
X642238Y455888D01*
G02X642752Y454650I-1237J-1239D01*
G01Y452333D01*
G02X644502Y449300I-1753J-3033D01*
G02X637498I-3502J0D01*
G02X639248Y452333I3503J0D01*
G01Y453925D01*
X638662Y454512D01*
G02X638148Y455750I1237J1239D01*
G37*
G36*
G01X609398Y453900D02*
Y481636D01*
G02X607398Y484800I1503J3164D01*
G02X614402I3502J0D01*
G02X612402Y481636I-3503J0D01*
G01Y454340D01*
X612413Y454307D01*
G02X612502Y453800I-1413J-509D01*
G01Y452464D01*
G02X614502Y449300I-1503J-3164D01*
G02X607498I-3502J0D01*
G02X609498Y452464I3503J0D01*
G01Y453360D01*
X609487Y453393D01*
G02X609398Y453900I1413J509D01*
G37*
G36*
G01X619398D02*
Y481636D01*
G02X617398Y484800I1503J3164D01*
G02X624402I3502J0D01*
G02X622402Y481636I-3503J0D01*
G01Y454340D01*
X622413Y454307D01*
G02X622502Y453800I-1413J-509D01*
G01Y452464D01*
G02X624502Y449300I-1503J-3164D01*
G02X617498I-3502J0D01*
G02X619498Y452464I3503J0D01*
G01Y453360D01*
X619487Y453393D01*
G02X619398Y453900I1413J509D01*
G37*
G36*
G01X507148Y517564D02*
Y519567D01*
G02X505398Y522600I1753J3033D01*
G02X512402I3502J0D01*
G02X510652Y519567I-3503J0D01*
G01Y516850D01*
G02X510252Y515736I-1751J0D01*
G01Y514733D01*
G02X512002Y511700I-1753J-3033D01*
G02X504998I-3502J0D01*
G02X506748Y514733I3503J0D01*
G01Y516450D01*
G02X507148Y517564I1751J0D01*
G37*
G36*
G01X527148Y514733D02*
Y519567D01*
G02X525398Y522600I1753J3033D01*
G02X532402I3502J0D01*
G02X530652Y519567I-3503J0D01*
G01Y514733D01*
G02X532402Y511700I-1753J-3033D01*
G02X525398I-3502J0D01*
G02X527148Y514733I3503J0D01*
G37*
G36*
G01X537148D02*
Y519567D01*
G02X535398Y522600I1753J3033D01*
G02X542402I3502J0D01*
G02X540652Y519567I-3503J0D01*
G01Y514733D01*
G02X542402Y511700I-1753J-3033D01*
G02X535398I-3502J0D01*
G02X537148Y514733I3503J0D01*
G37*
G36*
G01X547148D02*
Y519567D01*
G02X545398Y522600I1753J3033D01*
G02X552402I3502J0D01*
G02X550652Y519567I-3503J0D01*
G01Y514733D01*
G02X552402Y511700I-1753J-3033D01*
G02X545398I-3502J0D01*
G02X547148Y514733I3503J0D01*
G37*
G36*
G01X567148Y509500D02*
Y519567D01*
G02X565398Y522600I1753J3033D01*
G02X572402I3502J0D01*
G02X570652Y519567I-3503J0D01*
G01Y510225D01*
X578325Y502552D01*
X625300D01*
G02X626538Y502038I-1J-1751D01*
G01X631538Y497038D01*
G02X632052Y495800I-1237J-1239D01*
G01Y490875D01*
X632138Y490788D01*
G02X632652Y489550I-1237J-1239D01*
G01Y487833D01*
G02X634402Y484800I-1753J-3033D01*
G02X632402Y481636I-3503J0D01*
G01Y454340D01*
X632413Y454307D01*
G02X632502Y453800I-1413J-509D01*
G01Y452464D01*
G02X634502Y449300I-1503J-3164D01*
G02X627498I-3502J0D01*
G02X629498Y452464I3503J0D01*
G01Y453360D01*
X629487Y453393D01*
G02X629398Y453900I1413J509D01*
G01Y481636D01*
G02X627398Y484800I1503J3164D01*
G02X629148Y487833I3503J0D01*
G01Y488825D01*
X629062Y488912D01*
G02X628548Y490150I1237J1239D01*
G01Y495075D01*
X624575Y499048D01*
X577600D01*
G02X576362Y499562I1J1751D01*
G01X567662Y508262D01*
G02X567148Y509500I1237J1239D01*
G37*
G36*
G01X577148Y509400D02*
Y519567D01*
G02X575398Y522600I1753J3033D01*
G02X582402I3502J0D01*
G02X580652Y519567I-3503J0D01*
G01Y510125D01*
X582725Y508052D01*
X600600D01*
G02Y504548I0J-1752D01*
G01X582000D01*
G02X580762Y505062I1J1751D01*
G01X577662Y508162D01*
G02X577148Y509400I1237J1239D01*
G37*
G36*
G01X607148Y514433D02*
Y519567D01*
G02X605398Y522600I1753J3033D01*
G02X612402I3502J0D01*
G02X610652Y519567I-3503J0D01*
G01Y514433D01*
G02X612402Y511400I-1753J-3033D01*
G02X605398I-3502J0D01*
G02X607148Y514433I3503J0D01*
G37*
G36*
G01X617148D02*
Y519567D01*
G02X615398Y522600I1753J3033D01*
G02X622402I3502J0D01*
G02X620652Y519567I-3503J0D01*
G01Y514433D01*
G02X622402Y511400I-1753J-3033D01*
G02X615398I-3502J0D01*
G02X617148Y514433I3503J0D01*
G37*
G36*
G01X627148D02*
Y519567D01*
G02X625398Y522600I1753J3033D01*
G02X632402I3502J0D01*
G02X630652Y519567I-3503J0D01*
G01Y514433D01*
G02X632402Y511400I-1753J-3033D01*
G02X625398I-3502J0D01*
G02X627148Y514433I3503J0D01*
G37*
G36*
G01X637148D02*
Y519567D01*
G02X635398Y522600I1753J3033D01*
G02X642402I3502J0D01*
G02X640652Y519567I-3503J0D01*
G01Y514433D01*
G02X642402Y511400I-1753J-3033D01*
G02X635398I-3502J0D01*
G02X637148Y514433I3503J0D01*
G37*
G36*
G01X647148D02*
Y519567D01*
G02X645398Y522600I1753J3033D01*
G02X652402I3502J0D01*
G02X650652Y519567I-3503J0D01*
G01Y514433D01*
G02X652402Y511400I-1753J-3033D01*
G02X645398I-3502J0D01*
G02X647148Y514433I3503J0D01*
G37*
G36*
G01X657148D02*
Y519567D01*
G02X655398Y522600I1753J3033D01*
G02X662402I3502J0D01*
G02X660652Y519567I-3503J0D01*
G01Y514433D01*
G02X662402Y511400I-1753J-3033D01*
G02X655398I-3502J0D01*
G02X657148Y514433I3503J0D01*
G37*
G36*
G01X466925Y531948D02*
X465933D01*
G02X462900Y530198I-3033J1753D01*
G02Y537202I0J3502D01*
G02X465933Y535452I0J-3503D01*
G01X467650D01*
G02X468888Y534938I-1J-1751D01*
G01X469475Y534352D01*
X475867D01*
G02X481933I3033J-1753D01*
G01X485867D01*
G02X488900Y536102I3033J-1753D01*
G02Y529098I0J-3502D01*
G02X485867Y530848I0J3503D01*
G01X481933D01*
G02X475867I-3033J1753D01*
G01X468750D01*
G02X467512Y531362I1J1751D01*
G01X466925Y531948D01*
G37*
G36*
G01X577348Y539663D02*
Y540767D01*
G02X575598Y543800I1753J3033D01*
G02X582602I3502J0D01*
G02X580852Y540767I-3503J0D01*
G01Y539050D01*
G02X580652Y538237I-1752J0D01*
G01Y535633D01*
G02X582402Y532600I-1753J-3033D01*
G02X575398I-3502J0D01*
G02X577148Y535633I3503J0D01*
G01Y538850D01*
G02X577348Y539663I1752J0D01*
G37*
G36*
G01X587348D02*
Y540767D01*
G02X585598Y543800I1753J3033D01*
G02X592602I3502J0D01*
G02X590852Y540767I-3503J0D01*
G01Y539050D01*
G02X590652Y538237I-1752J0D01*
G01Y535633D01*
G02X592402Y532600I-1753J-3033D01*
G02X585398I-3502J0D01*
G02X587148Y535633I3503J0D01*
G01Y538850D01*
G02X587348Y539663I1752J0D01*
G37*
G36*
G01X597348D02*
Y540767D01*
G02X595598Y543800I1753J3033D01*
G02X602602I3502J0D01*
G02X600852Y540767I-3503J0D01*
G01Y539050D01*
G02X600652Y538237I-1752J0D01*
G01Y535633D01*
G02X602402Y532600I-1753J-3033D01*
G02X595398I-3502J0D01*
G02X597148Y535633I3503J0D01*
G01Y538850D01*
G02X597348Y539663I1752J0D01*
G37*
G36*
G01X607348D02*
Y540767D01*
G02X605598Y543800I1753J3033D01*
G02X612602I3502J0D01*
G02X610852Y540767I-3503J0D01*
G01Y539050D01*
G02X610652Y538237I-1752J0D01*
G01Y535633D01*
G02X612402Y532600I-1753J-3033D01*
G02X605398I-3502J0D01*
G02X607148Y535633I3503J0D01*
G01Y538850D01*
G02X607348Y539663I1752J0D01*
G37*
G36*
G01X626948Y539450D02*
Y541167D01*
G02X625198Y544200I1753J3033D01*
G02X632202I3502J0D01*
G02X630452Y541167I-3503J0D01*
G01Y540063D01*
G02X630652Y539250I-1552J-813D01*
G01Y535633D01*
G02X632402Y532600I-1753J-3033D01*
G02X625398I-3502J0D01*
G02X627148Y535633I3503J0D01*
G01Y538637D01*
G02X626948Y539450I1552J813D01*
G37*
G36*
G01X506948Y539650D02*
Y541367D01*
G02X505198Y544400I1753J3033D01*
G02X512202I3502J0D01*
G02X510452Y541367I-3503J0D01*
G01Y540263D01*
G02X510652Y539450I-1552J-813D01*
G01Y535633D01*
G02X512402Y532600I-1753J-3033D01*
G02X505398I-3502J0D01*
G02X507148Y535633I3503J0D01*
G01Y538837D01*
G02X506948Y539650I1552J813D01*
G37*
G36*
G01X516948D02*
Y541367D01*
G02X515198Y544400I1753J3033D01*
G02X522202I3502J0D01*
G02X520452Y541367I-3503J0D01*
G01Y540263D01*
G02X520652Y539450I-1552J-813D01*
G01Y535633D01*
G02X522402Y532600I-1753J-3033D01*
G02X515398I-3502J0D01*
G02X517148Y535633I3503J0D01*
G01Y538837D01*
G02X516948Y539650I1552J813D01*
G37*
G36*
G01X526948D02*
Y541367D01*
G02X525198Y544400I1753J3033D01*
G02X532202I3502J0D01*
G02X530452Y541367I-3503J0D01*
G01Y540263D01*
G02X530652Y539450I-1552J-813D01*
G01Y535633D01*
G02X532402Y532600I-1753J-3033D01*
G02X525398I-3502J0D01*
G02X527148Y535633I3503J0D01*
G01Y538837D01*
G02X526948Y539650I1552J813D01*
G37*
G36*
G01X546948D02*
Y541367D01*
G02X545198Y544400I1753J3033D01*
G02X552202I3502J0D01*
G02X550452Y541367I-3503J0D01*
G01Y540263D01*
G02X550652Y539450I-1552J-813D01*
G01Y535633D01*
G02X552402Y532600I-1753J-3033D01*
G02X545398I-3502J0D01*
G02X547148Y535633I3503J0D01*
G01Y538837D01*
G02X546948Y539650I1552J813D01*
G37*
G36*
G01X647248Y540134D02*
Y541367D01*
G02X645498Y544400I1753J3033D01*
G02X652502I3502J0D01*
G02X650752Y541367I-3503J0D01*
G01Y539650D01*
G02X650662Y539097I-1752J1D01*
G01X650652Y539066D01*
Y535633D01*
G02X652402Y532600I-1753J-3033D01*
G02X645398I-3502J0D01*
G02X647148Y535633I3503J0D01*
G01Y539550D01*
G02X647238Y540103I1752J-1D01*
G01X647248Y540134D01*
G37*
G36*
G01X657248D02*
Y541367D01*
G02X655498Y544400I1753J3033D01*
G02X662502I3502J0D01*
G02X660752Y541367I-3503J0D01*
G01Y539650D01*
G02X660662Y539097I-1752J1D01*
G01X660652Y539066D01*
Y535633D01*
G02X662402Y532600I-1753J-3033D01*
G02X655398I-3502J0D01*
G02X657148Y535633I3503J0D01*
G01Y539550D01*
G02X657238Y540103I1752J-1D01*
G01X657248Y540134D01*
G37*
G36*
G01X667248D02*
Y541367D01*
G02X665498Y544400I1753J3033D01*
G02X672502I3502J0D01*
G02X670752Y541367I-3503J0D01*
G01Y539650D01*
G02X670662Y539097I-1752J1D01*
G01X670652Y539066D01*
Y535633D01*
G02X672402Y532600I-1753J-3033D01*
G02X665398I-3502J0D01*
G02X667148Y535633I3503J0D01*
G01Y539550D01*
G02X667238Y540103I1752J-1D01*
G01X667248Y540134D01*
G37*
G36*
G01X556898Y501098D02*
Y519726D01*
G02X555398Y522600I2003J2874D01*
G02X562402I3502J0D01*
G02X560902Y519726I-3503J0D01*
G01Y496129D01*
X571429Y485602D01*
X583871D01*
X584485Y486215D01*
G02X585900Y486802I1416J-1415D01*
G01X588026D01*
G02X590900Y488302I2874J-2003D01*
G02Y481298I0J-3502D01*
G02X588026Y482798I0J3503D01*
G01X586729D01*
X586115Y482185D01*
G02X584700Y481598I-1416J1415D01*
G01X570600D01*
G02X569185Y482185I1J2002D01*
G01X553971Y497398D01*
X504802D01*
Y403929D01*
X515129Y393602D01*
X572100D01*
G02X573515Y393015I-1J-2002D01*
G01X574129Y392402D01*
X583798D01*
Y413671D01*
X581618Y415851D01*
X581518Y415837D01*
G02X581000Y415798I-521J3463D01*
G02X584502Y419300I0J3502D01*
G02X584463Y418783I-3502J4D01*
G01Y418782D01*
X584449Y418682D01*
X587215Y415915D01*
G02X587802Y414500I-1415J-1416D01*
G01Y392402D01*
X651900D01*
G02X652754Y392210I-1J-2002D01*
G02X653315Y391815I-855J-1810D01*
G01X661415Y383715D01*
G02X661810Y383154I-1415J-1416D01*
G02X662002Y382300I-1810J-855D01*
G01Y372874D01*
G02X663502Y370000I-2003J-2874D01*
G02X656498I-3502J0D01*
G02X657998Y372874I3503J0D01*
G01Y381471D01*
X651071Y388398D01*
X573300D01*
G02X571885Y388985I1J2002D01*
G01X571271Y389598D01*
X562002D01*
Y372874D01*
G02X563502Y370000I-2003J-2874D01*
G02X556498I-3502J0D01*
G02X557998Y372874I3503J0D01*
G01Y389598D01*
X514300D01*
G02X512885Y390185I1J2002D01*
G01X501385Y401685D01*
G02X500798Y403100I1415J1416D01*
G01Y497398D01*
X484800D01*
G02X483385Y497985I1J2002D01*
G01X477485Y503885D01*
G02X476898Y505300I1415J1416D01*
G01Y519726D01*
G02X475398Y522600I2003J2874D01*
G02X482402I3502J0D01*
G02X480902Y519726I-3503J0D01*
G01Y506129D01*
X485629Y501402D01*
X554800D01*
G02X556160Y500868I-1J-2002D01*
G01X556201Y500830D01*
X556216Y500815D01*
G03X556898Y501098I282J283D01*
G37*
G54D17*
X498900Y522600D03*
X558900Y532600D03*
X488900Y522600D03*
X588900D03*
X668900D03*
X638900Y532600D03*
X618900D03*
X598900Y522600D03*
X568900Y532600D03*
X538900D03*
X518900Y522600D03*
X498900Y532600D03*
X561000Y419300D03*
X541000D03*
X531000D03*
X521000D03*
X541000Y449300D03*
X551000D03*
X561000D03*
X571000D03*
X581000D03*
X591000Y419300D03*
X600000Y370000D03*
X610000D03*
X620000D03*
X640000D03*
X650000D03*
X520000D03*
X530000D03*
X540000D03*
X550000D03*
X640900Y484800D03*
X600900D03*
X639900Y470500D03*
X452900Y533700D03*
X462900Y523700D03*
X452900D03*
G54D16*
X495900Y375900D03*
X659600Y488900D03*
X664500Y398100D03*
X458800Y480300D03*
%LPD*%
G75*
G54D10*
X452900Y533700D03*
Y523700D03*
X462900Y533700D03*
Y523700D03*
X478900Y532600D03*
Y522600D03*
X508500Y511700D03*
X508700Y544400D03*
X488900Y532600D03*
X498900D03*
X508900D03*
Y522600D03*
X498900D03*
X488900D03*
X520000Y370000D03*
X530000D03*
X540000D03*
X541000Y419300D03*
X531000D03*
X521000D03*
Y449300D03*
X531000D03*
X541000D03*
X520800Y459900D03*
X530800D03*
X538900Y511700D03*
X528900D03*
X518700Y544400D03*
X528700D03*
X518900Y532600D03*
X528900D03*
X538900D03*
Y522600D03*
X528900D03*
X518900D03*
X550000Y370000D03*
X560000D03*
X571000Y409400D03*
Y419300D03*
X561000D03*
X551000D03*
Y449300D03*
X561000D03*
X571000D03*
X548900Y511700D03*
X548700Y544400D03*
X548900Y532600D03*
X558900D03*
X568900D03*
Y522600D03*
X558900D03*
X548900D03*
X600000Y370000D03*
X600900Y408600D03*
X601000Y419300D03*
X591000D03*
X581000D03*
Y449300D03*
X591000D03*
X601000D03*
X591100Y460200D03*
X601100D03*
X600900Y484800D03*
X590900D03*
X599100Y543800D03*
X589100D03*
X579100D03*
X578900Y532600D03*
X588900D03*
X598900D03*
Y522600D03*
X588900D03*
X578900D03*
X610000Y370000D03*
X620000D03*
X630000D03*
X610900Y408600D03*
X620900D03*
X630900D03*
X631000Y419300D03*
X621000D03*
X611000D03*
Y449300D03*
X621000D03*
X631000D03*
X630900Y484800D03*
X620900D03*
X610900D03*
X608900Y511400D03*
X618900D03*
X628900D03*
X628700Y544200D03*
X609100Y543800D03*
X608900Y532600D03*
X618900D03*
X628900D03*
Y522600D03*
X618900D03*
X608900D03*
X640000Y370000D03*
X650000D03*
X660000D03*
X640900Y408600D03*
X650900D03*
X651000Y419300D03*
X641000D03*
Y449300D03*
X651000D03*
X639900Y470500D03*
Y460500D03*
X651000Y459400D03*
X640900Y484800D03*
X638900Y511400D03*
X648900D03*
X658900D03*
X649000Y544400D03*
X659000D03*
X638900Y532600D03*
X648900D03*
X658900D03*
Y522600D03*
X648900D03*
X638900D03*
X669000Y544400D03*
X668900Y532600D03*
Y522600D03*
G54D11*
X458800Y480300D03*
X495900Y375900D03*
X664500Y398100D03*
X659600Y488900D03*
G54D12*
X535000Y362700D03*
X581600Y397400D03*
X600600Y506300D03*
G54D13*
G01X630000Y370000D02*
X620200Y360200D01*
X537500D01*
X535000Y362700D01*
G01X581600Y397400D02*
X560100D01*
X551000Y406500D01*
Y419300D01*
G01X620900Y484800D02*
Y453900D01*
X621000Y453800D01*
Y449300D01*
G01X610900Y484800D02*
Y453900D01*
X611000Y453800D01*
Y449300D01*
G01X630900Y484800D02*
Y453900D01*
X631000Y453800D01*
Y449300D01*
G54D14*
G01X449198Y533700D02*
X452900D01*
G01X502800Y499400D02*
X484800D01*
X478900Y505300D01*
Y522600D01*
G01X452900Y529998D02*
Y533700D01*
G01D02*
Y537402D01*
G01Y533700D02*
X456602D01*
G01X560000Y391600D02*
X514300D01*
X502800Y403100D01*
Y499400D01*
G01X558900Y495300D02*
X554800Y499400D01*
X502800D01*
G01X498900Y528898D02*
Y532600D01*
G01D02*
Y536302D01*
G01X495198Y532600D02*
X498900D01*
G01D02*
X502602D01*
G01X538900Y528898D02*
Y532600D01*
G01D02*
Y536302D01*
G01X535198Y532600D02*
X538900D01*
G01D02*
X542602D01*
G01X518900Y518898D02*
Y522600D01*
G01D02*
Y526302D01*
G01X515198Y522600D02*
X518900D01*
G01D02*
X522602D01*
G01X550000Y366298D02*
Y370000D01*
G01D02*
Y373702D01*
G01X546298Y370000D02*
X550000D01*
G01D02*
X553702D01*
G01X560000D02*
Y391600D01*
G01X586600Y390400D02*
X573300D01*
X572100Y391600D01*
X560000D01*
G01X558900Y495300D02*
X570600Y483600D01*
X584700D01*
X585900Y484800D01*
X590900D01*
G01X558900Y522600D02*
Y495300D01*
G01X568900Y528898D02*
Y532600D01*
G01D02*
Y536302D01*
G01X565198Y532600D02*
X568900D01*
G01D02*
X572602D01*
G01X660000Y370000D02*
Y382300D01*
X651900Y390400D01*
X586600D01*
G01D02*
X585800Y391200D01*
Y414500D01*
X581000Y419300D01*
G01X591000Y415598D02*
Y419300D01*
G01D02*
Y423002D01*
G01X587298Y419300D02*
X591000D01*
G01D02*
X594702D01*
G01X581000Y445598D02*
Y449300D01*
G01D02*
Y453002D01*
G01X577298Y449300D02*
X581000D01*
G01D02*
X584702D01*
G01X600900Y481098D02*
Y484800D01*
G01D02*
Y488502D01*
G01X597198Y484800D02*
X600900D01*
G01D02*
X604602D01*
G01X598900Y518898D02*
Y522600D01*
G01D02*
Y526302D01*
G01X595198Y522600D02*
X598900D01*
G01D02*
X602602D01*
G01X618900Y528898D02*
Y532600D01*
G01D02*
Y536302D01*
G01X615198Y532600D02*
X618900D01*
G01D02*
X622602D01*
G01X650000Y366298D02*
Y370000D01*
G01D02*
Y373702D01*
G01X646298Y370000D02*
X650000D01*
G01D02*
X653702D01*
G01X639900Y466798D02*
Y470500D01*
G01D02*
Y474202D01*
G01X636198Y470500D02*
X639900D01*
G01D02*
X643602D01*
G01X638900Y528898D02*
Y532600D01*
G01D02*
Y536302D01*
G01X635198Y532600D02*
X638900D01*
G01D02*
X642602D01*
G01X668900Y518898D02*
Y522600D01*
G01D02*
Y526302D01*
G01X665198Y522600D02*
X668900D01*
G01D02*
X672602D01*
G54D15*
G01X488900Y532600D02*
X478900D01*
G01D02*
X468750D01*
X467650Y533700D01*
X462900D01*
G01X508900Y532600D02*
Y539450D01*
X508700Y539650D01*
Y544400D01*
G01X508900Y522600D02*
Y516850D01*
X508500Y516450D01*
Y511700D01*
G01X531000Y449300D02*
Y454950D01*
X530800Y455150D01*
Y459900D01*
G01X521000Y449300D02*
Y454950D01*
X520800Y455150D01*
Y459900D01*
G01X518900Y532600D02*
Y539450D01*
X518700Y539650D01*
Y544400D01*
G01X528900Y532600D02*
Y539450D01*
X528700Y539650D01*
Y544400D01*
G01X538900Y522600D02*
Y511700D01*
G01X528900Y522600D02*
Y511700D01*
G01X571000Y419300D02*
Y409400D01*
G01X630900Y484800D02*
Y489550D01*
X630300Y490150D01*
Y495800D01*
X625300Y500800D01*
X577600D01*
X568900Y509500D01*
Y522600D01*
G01X548900Y532600D02*
Y539450D01*
X548700Y539650D01*
Y544400D01*
G01X548900Y522600D02*
Y511700D01*
G01X601000Y419300D02*
Y413450D01*
X600900Y413350D01*
Y408600D01*
G01X591000Y449300D02*
Y455350D01*
X591100Y455450D01*
Y460200D01*
G01X601000Y449300D02*
Y455350D01*
X601100Y455450D01*
Y460200D01*
G01X600600Y506300D02*
X582000D01*
X578900Y509400D01*
Y522600D01*
G01Y532600D02*
Y538850D01*
X579100Y539050D01*
Y543800D01*
G01X588900Y532600D02*
Y538850D01*
X589100Y539050D01*
Y543800D01*
G01X598900Y532600D02*
Y538850D01*
X599100Y539050D01*
Y543800D01*
G01X611000Y419300D02*
Y413450D01*
X610900Y413350D01*
Y408600D01*
G01X621000Y419300D02*
Y413450D01*
X620900Y413350D01*
Y408600D01*
G01X631000Y419300D02*
Y413450D01*
X630900Y413350D01*
Y408600D01*
G01X608900Y532600D02*
Y538850D01*
X609100Y539050D01*
Y543800D01*
G01X628900Y532600D02*
Y539250D01*
X628700Y539450D01*
Y544200D01*
G01X628900Y522600D02*
Y511400D01*
G01X618900Y522600D02*
Y511400D01*
G01X608900Y522600D02*
Y511400D01*
G01X641000Y419300D02*
Y413450D01*
X640900Y413350D01*
Y408600D01*
G01X651000Y419300D02*
Y413450D01*
X650900Y413350D01*
Y408600D01*
G01X641000Y449300D02*
Y454650D01*
X639900Y455750D01*
Y460500D01*
G01X651000Y449300D02*
Y459400D01*
G01X648900Y532600D02*
Y539550D01*
X649000Y539650D01*
Y544400D01*
G01X658900Y532600D02*
Y539550D01*
X659000Y539650D01*
Y544400D01*
G01X658900Y522600D02*
Y511400D01*
G01X648900Y522600D02*
Y511400D01*
G01X638900Y522600D02*
Y511400D01*
G01X668900Y532600D02*
Y539550D01*
X669000Y539650D01*
Y544400D01*
M02*
