G04 ================== begin FILE IDENTIFICATION RECORD ==================*
G04 Layout Name:  MotorDriver.brd*
G04 Film Name:    TOP*
G04 File Format:  Gerber RS274X*
G04 File Origin:  Cadence Allegro -unreleased*
G04 Origin Date:  Mon Jan  2 15:00:32 2023*
G04 *
G04 Layer:  ETCH/TOP*
G04 Layer:  PIN/TOP*
G04 Layer:  VIA CLASS/TOP*
G04 *
G04 Offset:    (0.00 0.00)*
G04 Mirror:    No*
G04 Mode:      Positive*
G04 Rotation:  0*
G04 FullContactRelief:  No*
G04 UndefLineWidth:     0.10*
G04 ================== end FILE IDENTIFICATION RECORD ====================*
%FSLAX25Y25*MOIN*%
%IR0*IPPOS*OFA0.00000B0.00000*MIA0B0*SFA1.00000B1.00000*%
%ADD15C,.024*%
%ADD11C,.06*%
%ADD16C,.09*%
%ADD13C,.1*%
%ADD14C,.13*%
%ADD12C,.15*%
%ADD10C,.17*%
%ADD17C,.02*%
%ADD18C,.03*%
%ADD19C,.05*%
%ADD20C,.2*%
%ADD21C,.14*%
%ADD23C,.07004*%
%ADD25C,.11004*%
%ADD24C,.14004*%
%ADD26C,.16004*%
%ADD22C,.18004*%
G75*
%LPD*%
G75*
G36*
G01X-235699Y176999D02*
X235699D01*
Y-176999D01*
X-235699D01*
Y176999D01*
G37*
%LPC*%
G75*
G36*
G01X-502Y-152164D02*
G02X-2502Y-149000I1503J3164D01*
G02X4502I3502J0D01*
G02X2502Y-152164I-3503J0D01*
G01Y-169600D01*
G02X2062Y-170662I-1502J0D01*
G01X62Y-172662D01*
G02X-1000Y-173102I-1062J1062D01*
G01X-96600D01*
G02X-97662Y-172662I0J1502D01*
G01X-106562Y-163762D01*
G02X-107002Y-162700I1062J1062D01*
G01Y-158701D01*
G02X-107202Y-157900I1502J801D01*
G02X-103798I1702J0D01*
G02X-103998Y-158701I-1702J0D01*
G01Y-162078D01*
X-95978Y-170098D01*
X-94991D01*
G03X-94708Y-169416I0J400D01*
G01X-95962Y-168162D01*
G02X-96402Y-167100I1062J1062D01*
G01Y-158622D01*
X-99737Y-155286D01*
X-115563D01*
X-116538Y-156262D01*
G02X-117600Y-156702I-1062J1062D01*
G01X-118397D01*
X-118439Y-156723D01*
G02X-119200Y-156902I-760J1523D01*
G02Y-153498I0J1702D01*
G02X-118439Y-153677I1J-1702D01*
G01X-118397Y-153698D01*
X-118222D01*
X-117247Y-152723D01*
G02X-117059Y-152564I1060J-1063D01*
G01X-117175Y-152202D01*
X-122978D01*
X-124171Y-153394D01*
X-124186Y-153439D01*
G02X-125800Y-154602I-1614J538D01*
G02X-127502Y-152900I0J1702D01*
G02X-126339Y-151286I1701J0D01*
G01X-126294Y-151271D01*
X-125008Y-149984D01*
G03X-125291Y-149302I-283J282D01*
G01X-128378D01*
X-129738Y-150662D01*
G02X-130800Y-151102I-1062J1062D01*
G01X-132699D01*
G02X-133500Y-151302I-801J1502D01*
G02Y-147898I0J1702D01*
G02X-132699Y-148098I0J-1702D01*
G01X-131422D01*
X-130062Y-146738D01*
G02X-129000Y-146298I1062J-1062D01*
G01X-97300D01*
G02X-96238Y-146738I0J-1502D01*
G01X-93146Y-149830D01*
G03X-92467Y-149491I283J283D01*
G02X-92502Y-149000I3467J494D01*
G02X-89000Y-152502I3502J0D01*
G02X-89491Y-152467I3J3502D01*
G03X-89830Y-153146I-56J-396D01*
G01X-88238Y-154738D01*
G02X-87798Y-155800I-1062J-1062D01*
G01Y-161578D01*
X-86978Y-162398D01*
X-61722D01*
X-60502Y-161178D01*
Y-152164D01*
G02X-62502Y-149000I1503J3164D01*
G02X-55498I3502J0D01*
G02X-57498Y-152164I-3503J0D01*
G01Y-161800D01*
G02X-57938Y-162862I-1502J0D01*
G01X-59292Y-164216D01*
G03X-59009Y-164898I283J-282D01*
G01X-41822D01*
X-40502Y-163578D01*
Y-152164D01*
G02X-42502Y-149000I1503J3164D01*
G02X-35498I3502J0D01*
G02X-37498Y-152164I-3503J0D01*
G01Y-164200D01*
G02X-37938Y-165262I-1502J0D01*
G01X-39392Y-166716D01*
G03X-39109Y-167398I283J-282D01*
G01X-21822D01*
X-20502Y-166078D01*
Y-152164D01*
G02X-22502Y-149000I1503J3164D01*
G02X-15498I3502J0D01*
G02X-17498Y-152164I-3503J0D01*
G01Y-166700D01*
G02X-17938Y-167762I-1502J0D01*
G01X-19592Y-169416D01*
G03X-19309Y-170098I283J-282D01*
G01X-1622D01*
X-502Y-168978D01*
Y-152164D01*
G37*
G36*
G01X112898Y92257D02*
X98354Y106801D01*
X98302Y106815D01*
G02X95698Y110200I898J3385D01*
G02X99200Y113702I3502J0D01*
G02X102585Y111098I0J-3502D01*
G01X102599Y111046D01*
X118022Y95622D01*
G02X118902Y93500I-2121J-2123D01*
G01Y89469D01*
X118908Y89444D01*
G02X119002Y88700I-2908J-745D01*
G01Y71804D01*
G02X119502Y70000I-3002J-1803D01*
G02X119002Y68196I-3502J-1D01*
G01Y62943D01*
X138922Y43022D01*
G02X139802Y40900I-2121J-2123D01*
G01Y-97000D01*
G02X138922Y-99122I-3001J1D01*
G01X112122Y-125922D01*
G02X110000Y-126802I-2123J2121D01*
G01X90277D01*
G02X89200Y-127002I-1077J2802D01*
G01X85811D01*
G02X81200Y-129502I-4611J3002D01*
G02Y-118498I0J5502D01*
G02X85811Y-120998I0J-5502D01*
G01X88323D01*
G02X89400Y-120798I1077J-2802D01*
G01X108757D01*
X133798Y-95757D01*
Y39657D01*
X113878Y59578D01*
G02X112998Y61700I2121J2123D01*
G01Y68196D01*
G02X112498Y70000I3002J1803D01*
G02X112998Y71804I3502J1D01*
G01Y88031D01*
X112992Y88056D01*
G02X112898Y88800I2908J745D01*
G01Y92257D01*
G37*
G36*
G01X25998Y93600D02*
G02X26878Y95722I3001J-1D01*
G01X42201Y111046D01*
X42215Y111098D01*
G02X45600Y113702I3385J-898D01*
G02X49102Y110200I0J-3502D01*
G02X46498Y106815I-3502J0D01*
G01X46446Y106801D01*
X32002Y92357D01*
Y72804D01*
G02X32502Y71000I-3002J-1803D01*
G02X29898Y67615I-3502J0D01*
G01X29846Y67601D01*
X7402Y45157D01*
Y-79057D01*
X49343Y-120998D01*
X60189D01*
G02X64800Y-118498I4611J-3002D01*
G02Y-129502I0J-5502D01*
G02X60189Y-127002I0J5502D01*
G01X48100D01*
G02X45978Y-126122I1J3001D01*
G01X2278Y-82422D01*
G02X1398Y-80300I2121J2123D01*
G01Y46400D01*
G02X2278Y48522I3001J-1D01*
G01X25601Y71846D01*
X25615Y71898D01*
G02X25998Y72804I3385J-897D01*
G01Y93600D01*
G37*
G36*
G01X-112502Y92657D02*
X-126646Y106801D01*
X-126698Y106815D01*
G02X-129302Y110200I898J3385D01*
G02X-125800Y113702I3502J0D01*
G02X-122415Y111098I0J-3502D01*
G01X-122401Y111046D01*
X-107378Y96022D01*
G02X-106498Y93900I-2121J-2123D01*
G01Y73304D01*
G02X-105998Y71500I-3002J-1803D01*
G02X-106498Y69696I-3502J-1D01*
G01Y66243D01*
X-87778Y47522D01*
G02X-86898Y45400I-2121J-2123D01*
G01Y-95900D01*
G02X-87778Y-98022I-3001J1D01*
G01X-116478Y-126722D01*
G02X-118600Y-127602I-2123J2121D01*
G01X-136200D01*
G02X-136944Y-127508I1J3002D01*
G01X-136969Y-127502D01*
X-139689D01*
G02X-144300Y-130002I-4611J3002D01*
G02Y-118998I0J5502D01*
G02X-139689Y-121498I0J-5502D01*
G01X-136300D01*
G02X-135556Y-121592I-1J-3002D01*
G01X-135531Y-121598D01*
X-119843D01*
X-92902Y-94657D01*
Y44157D01*
X-111622Y62878D01*
G02X-112502Y65000I2121J2123D01*
G01Y69696D01*
G02X-113002Y71500I3002J1803D01*
G02X-112502Y73304I3502J1D01*
G01Y92657D01*
G37*
G36*
G01X-199002Y93600D02*
G02X-198122Y95722I3001J-1D01*
G01X-182799Y111046D01*
X-182785Y111098D01*
G02X-179400Y113702I3385J-898D01*
G02X-175898Y110200I0J-3502D01*
G02X-178502Y106815I-3502J0D01*
G01X-178554Y106801D01*
X-192998Y92357D01*
Y72804D01*
G02X-192498Y71000I-3002J-1803D01*
G02X-195102Y67615I-3502J0D01*
G01X-195154Y67601D01*
X-215898Y46857D01*
Y-83557D01*
X-178557Y-120898D01*
X-169300D01*
G02X-167500Y-121498I-1J-3002D01*
G01X-165311D01*
G02X-160700Y-118998I4611J-3002D01*
G02Y-130002I0J-5502D01*
G02X-165311Y-127502I0J5502D01*
G01X-168700D01*
G02X-170500Y-126902I1J3002D01*
G01X-179800D01*
G02X-181922Y-126022I1J3001D01*
G01X-221022Y-86922D01*
G02X-221902Y-84800I2121J2123D01*
G01Y48100D01*
G02X-221022Y50222I3001J-1D01*
G01X-199399Y71846D01*
X-199385Y71898D01*
G02X-199002Y72804I3385J-897D01*
G01Y93600D01*
G37*
G36*
G01X102898Y76100D02*
Y88396D01*
G02X102398Y90200I3002J1803D01*
G02X109402I3502J0D01*
G02X108902Y88396I-3502J-1D01*
G01Y76769D01*
X108908Y76744D01*
G02X109002Y76000I-2908J-745D01*
G01Y71804D01*
G02X109502Y70000I-3002J-1803D01*
G02X102498I-3502J0D01*
G02X102998Y71804I3502J1D01*
G01Y75331D01*
X102992Y75356D01*
G02X102898Y76100I2908J745D01*
G37*
G36*
G01X35898Y77100D02*
Y88396D01*
G02X35398Y90200I3002J1803D01*
G02X42402I3502J0D01*
G02X41902Y88396I-3502J-1D01*
G01Y77769D01*
X41908Y77744D01*
G02X42002Y77000I-2908J-745D01*
G01Y72804D01*
G02X42502Y71000I-3002J-1803D01*
G02X35498I-3502J0D01*
G02X35998Y72804I3502J1D01*
G01Y76331D01*
X35992Y76356D01*
G02X35898Y77100I2908J745D01*
G37*
G36*
G01X-122102Y78997D02*
Y88396D01*
G02X-122602Y90200I3002J1803D01*
G02X-115598I3502J0D01*
G02X-116098Y88396I-3502J-1D01*
G01Y77900D01*
G02X-116498Y76403I-3001J0D01*
G01Y73304D01*
G02X-115998Y71500I-3002J-1803D01*
G02X-123002I-3502J0D01*
G02X-122502Y73304I3502J1D01*
G01Y77500D01*
G02X-122102Y78997I3001J0D01*
G37*
G36*
G01X-189102Y77100D02*
Y88396D01*
G02X-189602Y90200I3002J1803D01*
G02X-182598I3502J0D01*
G02X-183098Y88396I-3502J-1D01*
G01Y77769D01*
X-183092Y77744D01*
G02X-182998Y77000I-2908J-745D01*
G01Y72804D01*
G02X-182498Y71000I-3002J-1803D01*
G02X-189502I-3502J0D01*
G02X-189002Y72804I3502J1D01*
G01Y76331D01*
X-189008Y76356D01*
G02X-189102Y77100I2908J745D01*
G37*
G36*
G01X113198Y-68043D02*
X98354Y-53199D01*
X98302Y-53185D01*
G02X95698Y-49800I898J3385D01*
G02X99200Y-46298I3502J0D01*
G02X102585Y-48902I0J-3502D01*
G01X102599Y-48954D01*
X118322Y-64678D01*
G02X119202Y-66800I-2121J-2123D01*
G01Y-82300D01*
G02X119002Y-83377I-3002J0D01*
G01Y-86696D01*
G02X119502Y-88500I-3002J-1803D01*
G02X116898Y-91885I-3502J0D01*
G01X116846Y-91899D01*
X104522Y-104222D01*
G02X102400Y-105102I-2123J2121D01*
G01X89600D01*
G02X88856Y-105008I1J3002D01*
G01X88831Y-105002D01*
X85811D01*
G02X81200Y-107502I-4611J3002D01*
G02Y-96498I0J5502D01*
G02X85811Y-98998I0J-5502D01*
G01X89500D01*
G02X90244Y-99092I-1J-3002D01*
G01X90269Y-99098D01*
X101157D01*
X112601Y-87654D01*
X112615Y-87602D01*
G02X112998Y-86696I3385J-897D01*
G01Y-82500D01*
G02X113198Y-81423I3002J0D01*
G01Y-68043D01*
G37*
G36*
G01X25898Y-66500D02*
G02X26778Y-64378I3001J-1D01*
G01X42201Y-48954D01*
X42215Y-48902D01*
G02X45600Y-46298I3385J-898D01*
G02X49102Y-49800I0J-3502D01*
G02X46498Y-53185I-3502J0D01*
G01X46446Y-53199D01*
X31902Y-67743D01*
Y-81731D01*
X31908Y-81756D01*
G02X32002Y-82500I-2908J-745D01*
G01Y-86696D01*
G02X32385Y-87602I-3002J-1803D01*
G01X32399Y-87654D01*
X43743Y-98998D01*
X60189D01*
G02X64800Y-96498I4611J-3002D01*
G02Y-107502I0J-5502D01*
G02X60189Y-105002I0J5502D01*
G01X42500D01*
G02X40378Y-104122I1J3001D01*
G01X28154Y-91899D01*
X28102Y-91885D01*
G02X25498Y-88500I898J3385D01*
G02X25998Y-86696I3502J1D01*
G01Y-83169D01*
X25992Y-83144D01*
G02X25898Y-82400I2908J745D01*
G01Y-66500D01*
G37*
G36*
G01X-111902Y-67943D02*
X-126646Y-53199D01*
X-126698Y-53185D01*
G02X-129302Y-49800I898J3385D01*
G02X-125800Y-46298I3502J0D01*
G02X-122415Y-48902I0J-3502D01*
G01X-122401Y-48954D01*
X-106778Y-64578D01*
G02X-105898Y-66700I-2121J-2123D01*
G01Y-69200D01*
G02X-105992Y-69944I-3002J1D01*
G01X-105998Y-69969D01*
Y-86696D01*
G02X-105498Y-88500I-3002J-1803D01*
G02X-108102Y-91885I-3502J0D01*
G01X-108154Y-91899D01*
X-121278Y-105022D01*
G02X-123400Y-105902I-2123J2121D01*
G01X-135900D01*
G02X-137397Y-105502I0J3001D01*
G01X-139689D01*
G02X-144300Y-108002I-4611J3002D01*
G02Y-96998I0J5502D01*
G02X-139689Y-99498I0J-5502D01*
G01X-136300D01*
G02X-134803Y-99898I0J-3001D01*
G01X-124643D01*
X-112399Y-87654D01*
X-112385Y-87602D01*
G02X-112002Y-86696I3385J-897D01*
G01Y-69300D01*
G02X-111908Y-68556I3002J-1D01*
G01X-111902Y-68531D01*
Y-67943D01*
G37*
G36*
G01X-199202Y-66600D02*
G02X-198322Y-64478I3001J-1D01*
G01X-182799Y-48954D01*
X-182785Y-48902D01*
G02X-179400Y-46298I3385J-898D01*
G02X-175898Y-49800I0J-3502D01*
G02X-178502Y-53185I-3502J0D01*
G01X-178554Y-53199D01*
X-193198Y-67843D01*
Y-68822D01*
X-193186Y-68856D01*
G02X-192998Y-69900I-2814J-1046D01*
G01Y-86696D01*
G02X-192615Y-87602I-3002J-1803D01*
G01X-192601Y-87654D01*
X-180957Y-99298D01*
X-171200D01*
G02X-170123Y-99498I0J-3002D01*
G01X-165311D01*
G02X-160700Y-96998I4611J-3002D01*
G02Y-108002I0J-5502D01*
G02X-165311Y-105502I0J5502D01*
G01X-171000D01*
G02X-172077Y-105302I0J3002D01*
G01X-182200D01*
G02X-184322Y-104422I1J3001D01*
G01X-196846Y-91899D01*
X-196898Y-91885D01*
G02X-199502Y-88500I898J3385D01*
G02X-199002Y-86696I3502J1D01*
G01Y-70777D01*
G02X-199202Y-69700I2802J1077D01*
G01Y-66600D01*
G37*
G36*
G01X102898Y-82400D02*
Y-71604D01*
G02X102398Y-69800I3002J1803D01*
G02X109402I3502J0D01*
G02X108902Y-71604I-3502J-1D01*
G01Y-81731D01*
X108908Y-81756D01*
G02X109002Y-82500I-2908J-745D01*
G01Y-86696D01*
G02X109502Y-88500I-3002J-1803D01*
G02X102498I-3502J0D01*
G02X102998Y-86696I3502J1D01*
G01Y-83169D01*
X102992Y-83144D01*
G02X102898Y-82400I2908J745D01*
G37*
G36*
G01X35898D02*
Y-71604D01*
G02X35398Y-69800I3002J1803D01*
G02X42402I3502J0D01*
G02X41902Y-71604I-3502J-1D01*
G01Y-81731D01*
X41908Y-81756D01*
G02X42002Y-82500I-2908J-745D01*
G01Y-86696D01*
G02X42502Y-88500I-3002J-1803D01*
G02X35498I-3502J0D01*
G02X35998Y-86696I3502J1D01*
G01Y-83169D01*
X35992Y-83144D01*
G02X35898Y-82400I2908J745D01*
G37*
G36*
G01X-122102D02*
Y-71604D01*
G02X-122602Y-69800I3002J1803D01*
G02X-115598I3502J0D01*
G02X-116098Y-71604I-3502J-1D01*
G01Y-81731D01*
X-116092Y-81756D01*
G02X-115998Y-82500I-2908J-745D01*
G01Y-86696D01*
G02X-115498Y-88500I-3002J-1803D01*
G02X-122502I-3502J0D01*
G02X-122002Y-86696I3502J1D01*
G01Y-83169D01*
X-122008Y-83144D01*
G02X-122102Y-82400I2908J745D01*
G37*
G36*
G01X-189102D02*
Y-71604D01*
G02X-189602Y-69800I3002J1803D01*
G02X-182598I3502J0D01*
G02X-183098Y-71604I-3502J-1D01*
G01Y-81731D01*
X-183092Y-81756D01*
G02X-182998Y-82500I-2908J-745D01*
G01Y-86696D01*
G02X-182498Y-88500I-3002J-1803D01*
G02X-189502I-3502J0D01*
G02X-189002Y-86696I3502J1D01*
G01Y-83169D01*
X-189008Y-83144D01*
G02X-189102Y-82400I2908J745D01*
G37*
G36*
G01X194185Y-105935D02*
X195284Y-104835D01*
X195260Y-104728D01*
G02X194998Y-102400I10240J2331D01*
G02X205500Y-91898I10502J0D01*
G01X221900D01*
G02Y-112902I0J-10502D01*
G01X205500D01*
G02X203192Y-112645I1J10502D01*
G02X201965Y-114515I-5117J2020D01*
G01X187802Y-128679D01*
Y-140400D01*
G02X176798I-5502J0D01*
G01Y-126400D01*
G02X178410Y-122510I5502J-1D01*
G01X192866Y-108053D01*
X192881Y-108010D01*
G02X194185Y-105935I5193J-1816D01*
G37*
G36*
G01X-502Y-98022D02*
X-2094Y-96429D01*
X-2139Y-96414D01*
G02X-3302Y-94800I538J1614D01*
G02X-1600Y-93098I1702J0D01*
G02X14Y-94261I0J-1701D01*
G01X29Y-94306D01*
X2062Y-96338D01*
G02X2502Y-97400I-1062J-1062D01*
G01Y-135836D01*
G02X4502Y-139000I-1503J-3164D01*
G02X-2502I-3502J0D01*
G02X-502Y-135836I3503J0D01*
G01Y-98022D01*
G37*
G36*
G01X-20902Y-134100D02*
Y-95701D01*
G02X-21102Y-94900I1502J801D01*
G02X-17698I1702J0D01*
G02X-17898Y-95701I-1702J0D01*
G01Y-133480D01*
G02X-17498Y-134500I-1102J-1021D01*
G01Y-135836D01*
G02X-15498Y-139000I-1503J-3164D01*
G02X-22502I-3502J0D01*
G02X-20502Y-135836I3503J0D01*
G01Y-135120D01*
G02X-20902Y-134100I1102J1021D01*
G37*
G36*
G01X-40502Y-135836D02*
Y-96601D01*
G02X-40702Y-95800I1502J801D01*
G02X-37298I1702J0D01*
G02X-37498Y-96601I-1702J0D01*
G01Y-135836D01*
G02X-35498Y-139000I-1503J-3164D01*
G02X-42502I-3502J0D01*
G02X-40502Y-135836I3503J0D01*
G37*
G36*
G01X-60602Y-134400D02*
Y-97001D01*
G02X-60802Y-96200I1502J801D01*
G02X-57398I1702J0D01*
G02X-57598Y-97001I-1702J0D01*
G01Y-133960D01*
X-57587Y-133993D01*
G02X-57498Y-134500I-1413J-509D01*
G01Y-135836D01*
G02X-55498Y-139000I-1503J-3164D01*
G02X-62502I-3502J0D01*
G02X-60502Y-135836I3503J0D01*
G01Y-134940D01*
X-60513Y-134907D01*
G02X-60602Y-134400I1413J509D01*
G37*
G36*
G01X-68902Y-126778D02*
Y-97801D01*
G02X-69102Y-97000I1502J801D01*
G02X-65698I1702J0D01*
G02X-65898Y-97801I-1702J0D01*
G01Y-127400D01*
G02X-66338Y-128462I-1502J0D01*
G01X-75699Y-137823D01*
X-75663Y-137939D01*
G02X-75498Y-139000I-3337J-1062D01*
G02X-79000Y-135498I-3502J0D01*
G02X-77939Y-135663I-1J-3502D01*
G01X-77823Y-135699D01*
X-68902Y-126778D01*
G37*
G36*
G01X-141299Y-144502D02*
G02X-142100Y-144702I-801J1502D01*
G02Y-141298I0J1702D01*
G02X-141299Y-141498I0J-1702D01*
G01X-99501D01*
G02X-98700Y-141298I801J-1502D01*
G02Y-144702I0J-1702D01*
G02X-99501Y-144502I0J1702D01*
G01X-141299D01*
G37*
G36*
G01X-67002Y145398D02*
X-133993D01*
X-147296Y132096D01*
G02X-149098Y130766I-5306J5303D01*
G01Y110258D01*
Y110199D01*
G02X-149598Y108396I-3502J0D01*
G01Y92284D01*
G03X-148860Y92071I400J1D01*
G02X-145900Y93702I2960J-1870D01*
G02Y86698I0J-3502D01*
G02X-148860Y88329I0J3501D01*
G03X-149598Y88116I-338J-214D01*
G01Y43093D01*
G02X-149811Y41984I-3001J2D01*
G02X-150478Y40971I-2788J1110D01*
G01X-153313Y38136D01*
G03X-152962Y37471I297J-268D01*
G02X-152500Y37502I465J-3471D01*
G02Y30498I0J-3502D01*
G02X-155281Y31872I0J3501D01*
G03X-155998Y31629I-317J-244D01*
G01Y27002D01*
X-154305D01*
X-154258Y27029D01*
G02X-152500Y27502I1758J-3029D01*
G01X-152499D01*
G02X-150696Y27002I0J-3502D01*
G01X-142304D01*
G02X-140501Y27502I1803J-3002D01*
G01X-140500D01*
G02Y20498I0J-3502D01*
G01X-140501D01*
G02X-142304Y20998I0J3502D01*
G01X-150696D01*
G02X-152499Y20498I-1803J3002D01*
G01X-152500D01*
G02X-154258Y20971I0J3502D01*
G01X-154305Y20998D01*
X-155998D01*
Y17743D01*
X-150478Y12222D01*
G02X-149598Y10100I-2121J-2123D01*
G01Y-47996D01*
G02X-149098Y-49799I-3002J-1803D01*
G01Y-49800D01*
G02X-156102I-3502J0D01*
G01Y-49799D01*
G02X-155602Y-47996I3502J0D01*
G01Y8857D01*
X-161122Y14378D01*
G02X-162002Y16500I2121J2123D01*
G01Y36693D01*
G02X-161789Y37802I3001J-2D01*
G02X-161122Y38815I2788J-1110D01*
G01X-156916Y43022D01*
X-155602Y44336D01*
Y88116D01*
G03X-156340Y88329I-400J-1D01*
G02X-159300Y86698I-2960J1870D01*
G02Y93702I0J3502D01*
G02X-156340Y92071I0J-3501D01*
G03X-155602Y92284I338J214D01*
G01Y108396D01*
G02X-156102Y110199I3002J1803D01*
G01Y110200D01*
Y130765D01*
G02X-160102Y137400I3503J6635D01*
G02X-159543Y140241I7502J-1D01*
G02X-157904Y142704I6942J-2843D01*
G01X-144601Y156007D01*
X-144600Y156088D01*
G02X-134100Y166402I10500J-188D01*
G01X70720D01*
X70736Y166405D01*
G02X72439Y166544I1703J-10362D01*
G01X171759D01*
G02X179183Y163469I-1J-10501D01*
G01X193326Y149326D01*
G02X196402Y141900I-7426J-7426D01*
G01Y129746D01*
X196403Y129732D01*
X196404Y129726D01*
G02X196502Y128300I-10404J-1431D01*
G01Y63100D01*
G02X196302Y61060I-10502J0D01*
G01Y-1900D01*
G02X196204Y-3326I-10502J5D01*
G01X196203Y-3332D01*
X196202Y-3346D01*
Y-66500D01*
G02X193126Y-73926I-10502J0D01*
G01X192802Y-74250D01*
Y-94400D01*
G02X187802Y-103345I-10501J0D01*
G01Y-108400D01*
G02X176798I-5502J0D01*
G01Y-103345D01*
G02X171798Y-94400I5501J8945D01*
G01Y-69900D01*
G02X174874Y-62474I10502J0D01*
G01X175198Y-62150D01*
Y-2000D01*
G02X175296Y-574I10502J-5D01*
G01X175297Y-568D01*
X175298Y-554D01*
Y62900D01*
G02X175498Y64940I10502J0D01*
G01Y126954D01*
X175497Y126968D01*
X175496Y126974D01*
G02X175398Y128400I10404J1431D01*
G01Y137550D01*
X167407Y145542D01*
X79902D01*
Y110200D01*
G02X75402Y103325I-7502J0D01*
G01Y92284D01*
G03X76140Y92071I400J1D01*
G02X79100Y93702I2960J-1870D01*
G02Y86698I0J-3502D01*
G02X76140Y88329I0J3501D01*
G03X75402Y88116I-338J-214D01*
G01Y42793D01*
G02X74522Y40671I-3001J1D01*
G01X71502Y37651D01*
G03X71838Y36971I283J-283D01*
G02X72300Y37002I465J-3471D01*
G02Y29998I0J-3502D01*
G02X69429Y31494I0J3503D01*
G03X68702Y31265I-327J-229D01*
G01Y26502D01*
X70495D01*
X70542Y26529D01*
G02X72300Y27002I1758J-3029D01*
G01X72301D01*
G02X74261Y26402I0J-3502D01*
G01X82496D01*
G02X84299Y26902I1803J-3002D01*
G01X84300D01*
G02Y19898I0J-3502D01*
G01X84299D01*
G02X82496Y20398I0J3502D01*
G01X73926D01*
G02X72301Y19998I-1625J3102D01*
G01X72300D01*
G02X70542Y20471I0J3502D01*
G01X70495Y20498D01*
X68702D01*
Y16943D01*
X74422Y11222D01*
G02X75302Y9100I-2121J-2123D01*
G01Y-43031D01*
X75308Y-43056D01*
Y-43057D01*
G02X75402Y-43800I-2908J-745D01*
G01Y-47996D01*
G02X75902Y-49799I-3002J-1803D01*
G01Y-49800D01*
G02X68898I-3502J0D01*
G01Y-49799D01*
G02X69398Y-47996I3502J0D01*
G01Y-44469D01*
X69392Y-44444D01*
Y-44443D01*
G02X69298Y-43700I2908J745D01*
G01Y7857D01*
X63578Y13578D01*
G02X62698Y15700I2121J2123D01*
G01Y36093D01*
G02X63578Y38215I3001J-1D01*
G01X69398Y44036D01*
Y88116D01*
G03X68660Y88329I-400J-1D01*
G02X65700Y86698I-2960J1870D01*
G02Y93702I0J3502D01*
G02X68660Y92071I0J-3501D01*
G03X69398Y92284I338J214D01*
G01Y103325D01*
G02X64898Y110200I3002J6875D01*
G01Y145398D01*
X-11998D01*
Y137000D01*
G02X-23002I-5502J0D01*
G01Y145398D01*
X-24998D01*
Y137000D01*
G02X-36002I-5502J0D01*
G01Y145398D01*
X-43498D01*
Y137000D01*
G02X-54502I-5502J0D01*
G01Y145398D01*
X-55998D01*
Y137000D01*
G02X-67002I-5502J0D01*
G01Y145398D01*
G37*
G54D23*
X215500Y76600D03*
X-140500Y34000D03*
X-49000Y127000D03*
X-30500D03*
X84300Y33400D03*
X-61500Y127000D03*
X-17500D03*
X215400Y141900D03*
X215200Y-53000D03*
X215300Y11600D03*
X-9000Y-139000D03*
X-29000D03*
X-49000D03*
X-69000D03*
X-79000Y-149000D03*
X-89000Y-139000D03*
X-69000Y-149000D03*
X-49000D03*
X-29000D03*
X-9000D03*
X-166000Y-49800D03*
X-139200D03*
X-172700Y-69800D03*
X-145900D03*
X-159300D03*
X-132500D03*
X59000Y110200D03*
X85800D03*
X52300Y90200D03*
X92500D03*
X-166000Y110200D03*
X-139200D03*
X-172700Y90200D03*
X-132500D03*
X59000Y-49800D03*
X85800D03*
X52300Y-69800D03*
X79100D03*
X65700D03*
X92500D03*
X103700Y57800D03*
X143100D03*
X-120700Y-113800D03*
X-81300D03*
X-121800Y59300D03*
X-82400D03*
X103100Y-111300D03*
X142500D03*
G54D25*
X205500Y-124400D03*
X221900D03*
G54D24*
X213400Y-153100D03*
X-152800Y-153200D03*
X72700Y-152700D03*
G54D26*
X-202600Y-32800D03*
X-102600D03*
X22400Y127200D03*
X122400D03*
X-202600D03*
X-102600D03*
X22400Y-32800D03*
X122400D03*
G54D22*
X155500Y-144000D03*
X30500Y-147000D03*
X-199500Y-142000D03*
X154000Y37500D03*
X-200500Y44500D03*
X-40500Y102500D03*
%LPD*%
G75*
G54D10*
X-199500Y-142000D03*
X-200500Y44500D03*
X-40500Y102500D03*
X30500Y-147000D03*
X155500Y-144000D03*
X154000Y37500D03*
G54D20*
G01X-134100Y155900D02*
X-61600D01*
G01D02*
X-48900D01*
G01D02*
X-30600D01*
G01D02*
X-17500D01*
G01X72300D02*
X-17500D01*
G01X185900Y141900D02*
X171757Y156043D01*
X72443D01*
X72300Y155900D01*
G01X182300Y-94400D02*
Y-69900D01*
X185700Y-66500D01*
Y-53000D01*
G01X221900Y-102400D02*
X205500D01*
G01X185700Y-53000D02*
Y-2000D01*
X185800Y-1900D01*
Y11600D01*
G01D02*
Y62900D01*
X186000Y63100D01*
Y76600D01*
G01D02*
Y128300D01*
X185900Y128400D01*
Y141900D01*
G54D11*
G01X-152600Y110200D02*
Y137400D01*
X-186100Y-69800D03*
X-196000Y-88500D03*
X-186000D03*
X-196000Y71000D03*
X-186000D03*
X-186100Y90200D03*
X-172700Y-69800D03*
X-159300D03*
X-179400Y-49800D03*
X-166000D03*
X-179400Y110200D03*
X-166000D03*
X-172700Y90200D03*
X-159300D03*
X-145900Y-69800D03*
X-132500D03*
X-152600Y-49800D03*
X-139200D03*
X-125800D03*
X-152500Y24000D03*
X-140500D03*
X-152500Y34000D03*
X-140500D03*
X-152600Y110200D03*
X-139200D03*
X-125800D03*
X-145900Y90200D03*
X-132500D03*
X-120700Y-113800D03*
X-119100Y-69800D03*
X-119000Y-88500D03*
X-109000D03*
X-121800Y59300D03*
X-119500Y71500D03*
X-109500D03*
X-119100Y90200D03*
X-89000Y-139000D03*
X-79000D03*
X-69000D03*
Y-149000D03*
X-79000D03*
X-89000D03*
X-81300Y-113800D03*
X-82400Y59300D03*
X-59000Y-139000D03*
X-49000D03*
X-39000D03*
Y-149000D03*
X-49000D03*
X-59000D03*
X-61500Y127000D03*
Y137000D03*
X-49000Y127000D03*
Y137000D03*
X-29000Y-139000D03*
X-19000D03*
X-9000D03*
Y-149000D03*
X-19000D03*
X-29000D03*
X-17500Y127000D03*
Y137000D03*
X-30500Y127000D03*
Y137000D03*
X1000Y-139000D03*
Y-149000D03*
X38900Y-69800D03*
X52300D03*
X29000Y-88500D03*
X39000D03*
X45600Y-49800D03*
X29000Y71000D03*
X39000D03*
X45600Y110200D03*
X38900Y90200D03*
X52300D03*
X65700Y-69800D03*
X79100D03*
X59000Y-49800D03*
X72400D03*
X72300Y23500D03*
X84300Y23400D03*
X72300Y33500D03*
X84300Y33400D03*
X59000Y110200D03*
X72400D03*
X65700Y90200D03*
X79100D03*
X103100Y-111300D03*
X92500Y-69800D03*
X105900D03*
X106000Y-88500D03*
X85800Y-49800D03*
X99200D03*
X103700Y57800D03*
X106000Y70000D03*
X85800Y110200D03*
X99200D03*
X92500Y90200D03*
X105900D03*
X142500Y-111300D03*
X116000Y-88500D03*
X143100Y57800D03*
X116000Y70000D03*
X185700Y-53000D03*
X185800Y11600D03*
X186000Y76600D03*
X185900Y141900D03*
X215200Y-53000D03*
X215300Y11600D03*
X215500Y76600D03*
X215400Y141900D03*
G54D21*
G01X-152600Y137400D02*
X-134100Y155900D01*
G01X72400Y110200D02*
Y155800D01*
X72300Y155900D01*
G54D12*
X-202600Y-32800D03*
Y127200D03*
X-102600Y-32800D03*
Y127200D03*
X22400Y-32800D03*
Y127200D03*
X122400Y-32800D03*
Y127200D03*
G54D13*
G01X-61500Y137000D02*
Y155800D01*
X-61600Y155900D01*
G01X-49000Y137000D02*
Y155800D01*
X-48900Y155900D01*
G01X-30500Y137000D02*
Y155800D01*
X-30600Y155900D01*
G01X-17500Y137000D02*
Y155900D01*
G01X205500Y-102400D02*
X198075Y-109825D01*
Y-110625D01*
X182300Y-126400D01*
G01Y-140400D02*
Y-126400D01*
G01Y-108400D02*
Y-94400D01*
X-160700Y-124500D03*
Y-102500D03*
X-144300Y-124500D03*
Y-102500D03*
X81200Y-124000D03*
X64800D03*
Y-102000D03*
X81200D03*
X205500Y-124400D03*
Y-102400D03*
X221900Y-124400D03*
Y-102400D03*
G54D14*
X-152800Y-153200D03*
X72700Y-152700D03*
X213400Y-153100D03*
G54D15*
X-133500Y-149600D03*
X-142100Y-143000D03*
X-105500Y-157900D03*
X-119200Y-155200D03*
X-125800Y-152900D03*
X-98700Y-143000D03*
X-67400Y-97000D03*
X-59100Y-96200D03*
X-39000Y-95800D03*
X-19400Y-94900D03*
X-1600Y-94800D03*
G54D16*
X182300Y-126400D03*
Y-140400D03*
Y-94400D03*
Y-108400D03*
G54D17*
G01X-133500Y-149600D02*
X-130800D01*
X-129000Y-147800D01*
X-97300D01*
X-89300Y-155800D01*
Y-162200D01*
X-87600Y-163900D01*
X-61100D01*
X-59000Y-161800D01*
Y-149000D01*
G01X-142100Y-143000D02*
X-98700D01*
G01X-105500Y-157900D02*
Y-162700D01*
X-96600Y-171600D01*
X-1000D01*
X1000Y-169600D01*
Y-149000D01*
G01X-19000D02*
Y-166700D01*
X-21200Y-168900D01*
X-93100D01*
X-94900Y-167100D01*
Y-158000D01*
X-99115Y-153785D01*
X-116185D01*
X-117600Y-155200D01*
X-119200D01*
G01X-39000Y-149000D02*
Y-164200D01*
X-41200Y-166400D01*
X-90400D01*
X-91800Y-165000D01*
Y-157000D01*
X-98200Y-150600D01*
X-98300Y-150700D01*
X-123600D01*
X-125800Y-152900D01*
G01X-79000Y-139000D02*
X-67400Y-127400D01*
Y-97000D01*
G01X-59100Y-96200D02*
Y-134400D01*
X-59000Y-134500D01*
Y-139000D01*
G01X-19400Y-94900D02*
Y-134100D01*
X-19000Y-134500D01*
Y-139000D01*
G01X-39000D02*
Y-95800D01*
G01X1000Y-139000D02*
Y-97400D01*
X-1600Y-94800D01*
G54D18*
G01X-208600Y-38800D02*
X-202600Y-32800D01*
G01D02*
X-196600Y-38800D01*
G01X-202600Y-32800D02*
X-196600Y-26800D01*
G01X-208600D02*
X-202600Y-32800D01*
G01X-208600Y121200D02*
X-202600Y127200D01*
G01D02*
X-196600Y133200D01*
G01X-208600D02*
X-202600Y127200D01*
G01D02*
X-196600Y121200D01*
G01X-148718Y-72618D02*
X-145900Y-69800D01*
G01D02*
X-143082Y-66982D01*
G01X-148718D02*
X-145900Y-69800D01*
G01D02*
X-143082Y-72618D01*
G01X-152500Y34000D02*
X-149682Y36818D01*
G01X-152500Y34000D02*
X-149682Y31182D01*
G01X-143318D02*
X-140500Y34000D01*
G01D02*
X-137682Y36818D01*
G01X-143318D02*
X-140500Y34000D01*
G01D02*
X-137682Y31182D01*
G01X-145900Y90200D02*
X-143082Y93018D01*
G01X-145900Y90200D02*
X-143082Y87382D01*
G01X-108600Y-38800D02*
X-102600Y-32800D01*
G01D02*
X-96600Y-38800D01*
G01X-102600Y-32800D02*
X-96600Y-26800D01*
G01X-108600D02*
X-102600Y-32800D01*
G01X-108600Y121200D02*
X-102600Y127200D01*
G01D02*
X-96600Y133200D01*
G01X-108600D02*
X-102600Y127200D01*
G01D02*
X-96600Y121200D01*
G01X-84118Y-116618D02*
X-81300Y-113800D01*
G01D02*
X-78482Y-110982D01*
G01X-84118D02*
X-81300Y-113800D01*
G01D02*
X-78482Y-116618D01*
G01X-85218Y56482D02*
X-82400Y59300D01*
G01D02*
X-79582Y56482D01*
G01X-82400Y59300D02*
X-79582Y62118D01*
G01X-85218D02*
X-82400Y59300D01*
G01X-64318Y124182D02*
X-61500Y127000D01*
G01D02*
X-58682Y129818D01*
G01X-64318D02*
X-61500Y127000D01*
G01D02*
X-58682Y124182D01*
G01X-51818D02*
X-49000Y127000D01*
G01D02*
X-46182Y129818D01*
G01X-51818D02*
X-49000Y127000D01*
G01D02*
X-46182Y124182D01*
G01X-20318D02*
X-17500Y127000D01*
G01D02*
X-14682Y129818D01*
G01X-20318D02*
X-17500Y127000D01*
G01D02*
X-14682Y124182D01*
G01X-33318D02*
X-30500Y127000D01*
G01D02*
X-27682Y129818D01*
G01X-33318D02*
X-30500Y127000D01*
G01D02*
X-27682Y124182D01*
G01X16400Y-38800D02*
X22400Y-32800D01*
G01X16400Y-26800D02*
X22400Y-32800D01*
G01X16400Y121200D02*
X22400Y127200D01*
G01X16400Y133200D02*
X22400Y127200D01*
G01Y-32800D02*
X28400Y-38800D01*
G01X22400Y-32800D02*
X28400Y-26800D01*
G01X22400Y127200D02*
X28400Y133200D01*
G01X22400Y127200D02*
X28400Y121200D01*
G01X76282Y-72618D02*
X79100Y-69800D01*
G01D02*
X81918Y-66982D01*
G01X76282D02*
X79100Y-69800D01*
G01D02*
X81918Y-72618D01*
G01X81482Y30582D02*
X84300Y33400D01*
G01X81482Y36218D02*
X84300Y33400D01*
G01X72300Y33500D02*
X75118Y36318D01*
G01X72300Y33500D02*
X75118Y30682D01*
G01X79100Y90200D02*
X81918Y93018D01*
G01X79100Y90200D02*
X81918Y87382D01*
G01X84300Y33400D02*
X87118Y36218D01*
G01X84300Y33400D02*
X87118Y30582D01*
G01X139682Y-114118D02*
X142500Y-111300D01*
G01X139682Y-108482D02*
X142500Y-111300D01*
G01X116400Y-38800D02*
X122400Y-32800D01*
G01D02*
X128400Y-38800D01*
G01X122400Y-32800D02*
X128400Y-26800D01*
G01X116400D02*
X122400Y-32800D01*
G01X140282Y54982D02*
X143100Y57800D01*
G01X140282Y60618D02*
X143100Y57800D01*
G01X116400Y121200D02*
X122400Y127200D01*
G01D02*
X128400Y133200D01*
G01X116400D02*
X122400Y127200D01*
G01D02*
X128400Y121200D01*
G01X142500Y-111300D02*
X145318Y-108482D01*
G01X142500Y-111300D02*
X145318Y-114118D01*
G01X143100Y57800D02*
X145918Y54982D01*
G01X143100Y57800D02*
X145918Y60618D01*
G01X201268Y-128632D02*
X205500Y-124400D01*
G01X201268Y-120168D02*
X205500Y-124400D01*
G01D02*
X209732Y-120168D01*
G01X205500Y-124400D02*
X209732Y-128632D01*
G01X217668D02*
X221900Y-124400D01*
G01D02*
X226132Y-120168D01*
G01X217668D02*
X221900Y-124400D01*
G01D02*
X226132Y-128632D01*
G01X212382Y-55818D02*
X215200Y-53000D01*
G01D02*
X218018Y-50182D01*
G01X212382D02*
X215200Y-53000D01*
G01D02*
X218018Y-55818D01*
G01X212482Y8782D02*
X215300Y11600D01*
G01D02*
X218118Y14418D01*
G01X212482D02*
X215300Y11600D01*
G01D02*
X218118Y8782D01*
G01X212682Y73782D02*
X215500Y76600D01*
G01D02*
X218318Y79418D01*
G01X212682D02*
X215500Y76600D01*
G01D02*
X218318Y73782D01*
G01X212582Y139082D02*
X215400Y141900D01*
G01D02*
X218218Y144718D01*
G01X212582D02*
X215400Y141900D01*
G01D02*
X218218Y139082D01*
G54D19*
G01X-160700Y-124500D02*
X-168700D01*
X-169300Y-123900D01*
X-179800D01*
X-218900Y-84800D01*
Y48100D01*
X-196000Y71000D01*
G01X-160700Y-102500D02*
X-171000D01*
X-171200Y-102300D01*
X-182200D01*
X-196000Y-88500D01*
G01D02*
Y-69900D01*
X-196200Y-69700D01*
Y-66600D01*
X-179400Y-49800D01*
G01X-196000Y71000D02*
Y93600D01*
X-179400Y110200D01*
G01X-186000Y-88500D02*
Y-82500D01*
X-186100Y-82400D01*
Y-69800D01*
G01X-159000Y23500D02*
X-158500Y24000D01*
X-152500D01*
G01X-159000Y23500D02*
Y36693D01*
X-152600Y43093D01*
Y110200D01*
G01Y-49800D02*
Y10100D01*
X-159000Y16500D01*
Y23500D01*
G01X-186000Y71000D02*
Y77000D01*
X-186100Y77100D01*
Y90200D01*
G01X-144300Y-124500D02*
X-136300D01*
X-136200Y-124600D01*
X-118600D01*
X-89900Y-95900D01*
Y45400D01*
X-109500Y65000D01*
Y71500D01*
G01X-144300Y-102500D02*
X-136300D01*
X-135900Y-102900D01*
X-123400D01*
X-109000Y-88500D01*
G01X-152500Y24000D02*
X-140500D01*
G01X-119000Y-88500D02*
Y-82500D01*
X-119100Y-82400D01*
Y-69800D01*
G01X-109000Y-88500D02*
Y-69300D01*
X-108900Y-69200D01*
Y-66700D01*
X-125800Y-49800D01*
G01X-119500Y71500D02*
Y77500D01*
X-119100Y77900D01*
Y90200D01*
G01X-109500Y71500D02*
Y93900D01*
X-125800Y110200D01*
G01X64800Y-124000D02*
X48100D01*
X4400Y-80300D01*
Y46400D01*
X29000Y71000D01*
G01X64800Y-102000D02*
X42500D01*
X29000Y-88500D01*
G01X39000D02*
Y-82500D01*
X38900Y-82400D01*
Y-69800D01*
G01X29000Y-88500D02*
Y-82500D01*
X28900Y-82400D01*
Y-66500D01*
X45600Y-49800D01*
G01X39000Y71000D02*
Y77000D01*
X38900Y77100D01*
Y90200D01*
G01X29000Y71000D02*
Y93600D01*
X45600Y110200D01*
G01X81200Y-124000D02*
X89200D01*
X89400Y-123800D01*
X110000D01*
X136800Y-97000D01*
Y40900D01*
X116000Y61700D01*
Y70000D01*
G01X81200Y-102000D02*
X89500D01*
X89600Y-102100D01*
X102400D01*
X116000Y-88500D01*
G01X72400Y-49800D02*
Y-43800D01*
X72300Y-43700D01*
Y9100D01*
X65700Y15700D01*
Y23200D01*
G01D02*
Y36093D01*
X72400Y42793D01*
Y110200D01*
G01X84300Y23400D02*
X72400D01*
X72300Y23500D01*
G01D02*
X66000D01*
X65700Y23200D01*
G01X106000Y-88500D02*
Y-82500D01*
X105900Y-82400D01*
Y-69800D01*
G01X116000Y-88500D02*
Y-82500D01*
X116200Y-82300D01*
Y-66800D01*
X99200Y-49800D01*
G01X106000Y70000D02*
Y76000D01*
X105900Y76100D01*
Y90200D01*
G01X116000Y70000D02*
Y88700D01*
X115900Y88800D01*
Y93500D01*
X99200Y110200D01*
M02*
