M48
INCH
T01C.04016
T02C.06
T03C.07
T04C.118
T05C.15
;LEADER: 12 
;HEADER: 
;CODE  : ASCII 
;FILE  : PowerBoard-1-2.drl for  ... layers TOP and BOTTOM
;DESIGN: PowerBoardChina.brd
;T01 Holesize 1. = 40.160000 Tolerance = +0.000000/-0.000000 PLATED MILS Quantity = 78
;T02 Holesize 2. = 60.000000 Tolerance = +0.000000/-0.000000 PLATED MILS Quantity = 4
;T03 Holesize 3. = 70.000000 Tolerance = +0.000000/-0.000000 PLATED MILS Quantity = 16
;T04 Holesize 4. = 118.000000 Tolerance = +0.000000/-0.000000 PLATED MILS Quantity = 4
;T05 Holesize 5. = 150.000000 Tolerance = +0.000000/-0.000000 PLATED MILS Quantity = 4
%
G90
T01
X0513000Y0433800
X0513000Y0423800
X0483700Y0358800
X0483700Y0348800
X0483700Y0283800
X0483700Y0273800
X0590000Y0460000
R02X-0010000
X0590000Y0385000
R02X-0010000
X0544900Y0464500
R02X-0010000
X0545100Y0389400
R02X-0010000
X0483700Y0433800
X0483700Y0423800
X0513000Y0358800
X0513000Y0348800
X0513000Y0284000
X0513000Y0274000
X0590000Y0310000
R02X-0010000
X0544800Y0314200
R02X-0010000
X0660000Y0265000
R11X-0010000
X0618600Y0310200
X0628600Y0310200
X0660000Y0340000
R11X-0010000
X0689700Y0324500
X0650400Y0324500
X0618500Y0460000
X0628500Y0460000
X0618500Y0385700
X0628500Y0385700
X0660000Y0415000
R11X-0010000
X0689400Y0400500
X0650100Y0400500
X0690400Y0474100
X0651100Y0474100
T02
X0490000Y0500000
X0504000Y0500000
X0522000Y0500000
X0536000Y0500000
T03
X0451000Y0351800
X0451000Y0368200
X0429000Y0368200
X0429000Y0351800
X0451000Y0276800
X0451000Y0293200
X0429000Y0293200
X0429000Y0276800
X0451000Y0426800
X0451000Y0443200
X0429000Y0443200
X0429000Y0426800
X0451000Y0501800
X0451000Y0518200
X0429000Y0518200
X0429000Y0501800
T04
X0400300Y0360300
X0400300Y0285300
X0400300Y0435300
X0400300Y0510300
T05
X0410000Y0325000
X0410000Y0475000
X0705000Y0275000
X0700000Y0510000
M30
