G04 ================== begin FILE IDENTIFICATION RECORD ==================*
G04 Layout Name:  PowerBoardChina.brd*
G04 Film Name:    TOP*
G04 File Format:  Gerber RS274X*
G04 File Origin:  Cadence Allegro -unreleased*
G04 Origin Date:  Sun Dec 18 15:03:40 2022*
G04 *
G04 Layer:  ETCH/TOP*
G04 Layer:  PIN/TOP*
G04 Layer:  VIA CLASS/TOP*
G04 *
G04 Offset:    (0.00 0.00)*
G04 Mirror:    No*
G04 Mode:      Positive*
G04 Rotation:  0*
G04 FullContactRelief:  No*
G04 UndefLineWidth:     4.00*
G04 ================== end FILE IDENTIFICATION RECORD ====================*
%FSLAX35Y35*MOIN*%
%IR0*IPPOS*OFA0.00000B0.00000*MIA0B0*SFA1.00000B1.00000*%
%ADD13C,.06*%
%ADD14C,.09*%
%ADD12C,.1*%
%ADD10C,.13*%
%ADD11C,.17*%
%ADD15C,.025*%
%ADD16C,.11004*%
%ADD19C,.22004*%
%ADD17C,.15004*%
%ADD18C,.18004*%
G75*
%LPD*%
G75*
G36*
G01X380501Y529899D02*
X719499D01*
Y255501D01*
X380501D01*
Y529899D01*
G37*
%LPC*%
G75*
G36*
G01X644661Y267923D02*
G03X645339I339J213D01*
G02X654661I4661J-2922D01*
G03X655339I339J213D01*
G02X660000Y270502I4661J-2922D01*
G02Y259498I0J-5502D01*
G02X655339Y262077I0J5501D01*
G03X654661I-339J-213D01*
G02X645339I-4661J2922D01*
G03X644661I-339J-213D01*
G02X635339I-4661J2922D01*
G03X634661I-339J-213D01*
G02X625339I-4661J2922D01*
G03X624661I-339J-213D01*
G02X615339I-4661J2922D01*
G03X614661I-339J-213D01*
G02X605339I-4661J2922D01*
G03X604661I-339J-213D01*
G02X595339I-4661J2922D01*
G03X594661I-339J-213D01*
G02X585339I-4661J2922D01*
G03X584661I-339J-213D01*
G02X575339I-4661J2922D01*
G03X574661I-339J-213D01*
G02X565339I-4661J2922D01*
G03X564661I-339J-213D01*
G02X555339I-4661J2922D01*
G03X554661I-339J-213D01*
G02X550000Y259498I-4661J2922D01*
G02Y270502I0J5502D01*
G02X554661Y267923I0J-5501D01*
G03X555339I339J213D01*
G02X564661I4661J-2922D01*
G03X565339I339J213D01*
G02X574661I4661J-2922D01*
G03X575339I339J213D01*
G02X584661I4661J-2922D01*
G03X585339I339J213D01*
G02X594661I4661J-2922D01*
G03X595339I339J213D01*
G02X604661I4661J-2922D01*
G03X605339I339J213D01*
G02X614661I4661J-2922D01*
G03X615339I339J213D01*
G02X624661I4661J-2922D01*
G03X625339I339J213D01*
G02X634661I4661J-2922D01*
G03X635339I339J213D01*
G02X644661I4661J-2922D01*
G37*
G36*
G01X480777Y278461D02*
G03Y279139I-213J339D01*
G02X478198Y283800I2922J4661D01*
G02X489202I5502J0D01*
G02X486623Y279139I-5501J0D01*
G03Y278461I213J-339D01*
G02X489202Y273800I-2922J-4661D01*
G02X478198I-5502J0D01*
G02X480777Y278461I5501J0D01*
G37*
G36*
G01X510077Y278661D02*
G03Y279339I-213J339D01*
G02X507498Y284000I2922J4661D01*
G02X518502I5502J0D01*
G02X515923Y279339I-5501J0D01*
G03Y278661I213J-339D01*
G02X518502Y274000I-2922J-4661D01*
G02X507498I-5502J0D01*
G02X510077Y278661I5501J0D01*
G37*
G36*
G01X574661Y312923D02*
G03X575339I339J213D01*
G02X584661I4661J-2922D01*
G03X585339I339J213D01*
G02X590000Y315502I4661J-2922D01*
G02Y304498I0J-5502D01*
G02X585339Y307077I0J5501D01*
G03X584661I-339J-213D01*
G02X575339I-4661J2922D01*
G03X574661I-339J-213D01*
G02X570000Y304498I-4661J2922D01*
G02Y315502I0J5502D01*
G02X574661Y312923I0J-5501D01*
G37*
G36*
G01X623939Y307277D02*
G03X623261I-339J-213D01*
G02X618600Y304698I-4661J2922D01*
G02Y315702I0J5502D01*
G02X623261Y313123I0J-5501D01*
G03X623939I339J213D01*
G02X628600Y315702I4661J-2922D01*
G02Y304698I0J-5502D01*
G02X623939Y307277I0J5501D01*
G37*
G36*
G01X529461Y317123D02*
G03X530139I339J213D01*
G02X539461I4661J-2922D01*
G03X540139I339J213D01*
G02X544800Y319702I4661J-2922D01*
G02Y308698I0J-5502D01*
G02X540139Y311277I0J5501D01*
G03X539461I-339J-213D01*
G02X530139I-4661J2922D01*
G03X529461I-339J-213D01*
G02X524800Y308698I-4661J2922D01*
G02Y319702I0J5502D01*
G02X529461Y317123I0J-5501D01*
G37*
G36*
G01X644661Y342923D02*
G03X645339I339J213D01*
G02X654661I4661J-2922D01*
G03X655339I339J213D01*
G02X660000Y345502I4661J-2922D01*
G02Y334498I0J-5502D01*
G02X655339Y337077I0J5501D01*
G03X654661I-339J-213D01*
G02X645339I-4661J2922D01*
G03X644661I-339J-213D01*
G02X635339I-4661J2922D01*
G03X634661I-339J-213D01*
G02X625339I-4661J2922D01*
G03X624661I-339J-213D01*
G02X615339I-4661J2922D01*
G03X614661I-339J-213D01*
G02X605339I-4661J2922D01*
G03X604661I-339J-213D01*
G02X595339I-4661J2922D01*
G03X594661I-339J-213D01*
G02X585339I-4661J2922D01*
G03X584661I-339J-213D01*
G02X575339I-4661J2922D01*
G03X574661I-339J-213D01*
G02X565339I-4661J2922D01*
G03X564661I-339J-213D01*
G02X555339I-4661J2922D01*
G03X554661I-339J-213D01*
G02X550000Y334498I-4661J2922D01*
G02Y345502I0J5502D01*
G02X554661Y342923I0J-5501D01*
G03X555339I339J213D01*
G02X564661I4661J-2922D01*
G03X565339I339J213D01*
G02X574661I4661J-2922D01*
G03X575339I339J213D01*
G02X584661I4661J-2922D01*
G03X585339I339J213D01*
G02X594661I4661J-2922D01*
G03X595339I339J213D01*
G02X604661I4661J-2922D01*
G03X605339I339J213D01*
G02X614661I4661J-2922D01*
G03X615339I339J213D01*
G02X624661I4661J-2922D01*
G03X625339I339J213D01*
G02X634661I4661J-2922D01*
G03X635339I339J213D01*
G02X644661I4661J-2922D01*
G37*
G36*
G01X480777Y353461D02*
G03Y354139I-213J339D01*
G02X478198Y358800I2922J4661D01*
G02X489202I5502J0D01*
G02X486623Y354139I-5501J0D01*
G03Y353461I213J-339D01*
G02X489202Y348800I-2922J-4661D01*
G02X478198I-5502J0D01*
G02X480777Y353461I5501J0D01*
G37*
G36*
G01X510077D02*
G03Y354139I-213J339D01*
G02X507498Y358800I2922J4661D01*
G02X518502I5502J0D01*
G02X515923Y354139I-5501J0D01*
G03Y353461I213J-339D01*
G02X518502Y348800I-2922J-4661D01*
G02X507498I-5502J0D01*
G02X510077Y353461I5501J0D01*
G37*
G36*
G01X574661Y387923D02*
G03X575339I339J213D01*
G02X584661I4661J-2922D01*
G03X585339I339J213D01*
G02X590000Y390502I4661J-2922D01*
G02Y379498I0J-5502D01*
G02X585339Y382077I0J5501D01*
G03X584661I-339J-213D01*
G02X575339I-4661J2922D01*
G03X574661I-339J-213D01*
G02X570000Y379498I-4661J2922D01*
G02Y390502I0J5502D01*
G02X574661Y387923I0J-5501D01*
G37*
G36*
G01X623839Y382777D02*
G03X623161I-339J-213D01*
G02X618500Y380198I-4661J2922D01*
G02Y391202I0J5502D01*
G02X623161Y388623I0J-5501D01*
G03X623839I339J213D01*
G02X628500Y391202I4661J-2922D01*
G02Y380198I0J-5502D01*
G02X623839Y382777I0J5501D01*
G37*
G36*
G01X529761Y392323D02*
G03X530439I339J213D01*
G02X539761I4661J-2922D01*
G03X540439I339J213D01*
G02X545100Y394902I4661J-2922D01*
G02Y383898I0J-5502D01*
G02X540439Y386477I0J5501D01*
G03X539761I-339J-213D01*
G02X530439I-4661J2922D01*
G03X529761I-339J-213D01*
G02X525100Y383898I-4661J2922D01*
G02Y394902I0J5502D01*
G02X529761Y392323I0J-5501D01*
G37*
G36*
G01X644661Y417923D02*
G03X645339I339J213D01*
G02X654661I4661J-2922D01*
G03X655339I339J213D01*
G02X660000Y420502I4661J-2922D01*
G02Y409498I0J-5502D01*
G02X655339Y412077I0J5501D01*
G03X654661I-339J-213D01*
G02X645339I-4661J2922D01*
G03X644661I-339J-213D01*
G02X635339I-4661J2922D01*
G03X634661I-339J-213D01*
G02X625339I-4661J2922D01*
G03X624661I-339J-213D01*
G02X615339I-4661J2922D01*
G03X614661I-339J-213D01*
G02X605339I-4661J2922D01*
G03X604661I-339J-213D01*
G02X595339I-4661J2922D01*
G03X594661I-339J-213D01*
G02X585339I-4661J2922D01*
G03X584661I-339J-213D01*
G02X575339I-4661J2922D01*
G03X574661I-339J-213D01*
G02X565339I-4661J2922D01*
G03X564661I-339J-213D01*
G02X555339I-4661J2922D01*
G03X554661I-339J-213D01*
G02X550000Y409498I-4661J2922D01*
G02Y420502I0J5502D01*
G02X554661Y417923I0J-5501D01*
G03X555339I339J213D01*
G02X564661I4661J-2922D01*
G03X565339I339J213D01*
G02X574661I4661J-2922D01*
G03X575339I339J213D01*
G02X584661I4661J-2922D01*
G03X585339I339J213D01*
G02X594661I4661J-2922D01*
G03X595339I339J213D01*
G02X604661I4661J-2922D01*
G03X605339I339J213D01*
G02X614661I4661J-2922D01*
G03X615339I339J213D01*
G02X624661I4661J-2922D01*
G03X625339I339J213D01*
G02X634661I4661J-2922D01*
G03X635339I339J213D01*
G02X644661I4661J-2922D01*
G37*
G36*
G01X480777Y428461D02*
G03Y429139I-213J339D01*
G02X478198Y433800I2922J4661D01*
G02X489202I5502J0D01*
G02X486623Y429139I-5501J0D01*
G03Y428461I213J-339D01*
G02X489202Y423800I-2922J-4661D01*
G02X478198I-5502J0D01*
G02X480777Y428461I5501J0D01*
G37*
G36*
G01X510077D02*
G03Y429139I-213J339D01*
G02X507498Y433800I2922J4661D01*
G02X518502I5502J0D01*
G02X515923Y429139I-5501J0D01*
G03Y428461I213J-339D01*
G02X518502Y423800I-2922J-4661D01*
G02X507498I-5502J0D01*
G02X510077Y428461I5501J0D01*
G37*
G36*
G01X574661Y462923D02*
G03X575339I339J213D01*
G02X584661I4661J-2922D01*
G03X585339I339J213D01*
G02X590000Y465502I4661J-2922D01*
G02Y454498I0J-5502D01*
G02X585339Y457077I0J5501D01*
G03X584661I-339J-213D01*
G02X575339I-4661J2922D01*
G03X574661I-339J-213D01*
G02X570000Y454498I-4661J2922D01*
G02Y465502I0J5502D01*
G02X574661Y462923I0J-5501D01*
G37*
G36*
G01X623839Y457077D02*
G03X623161I-339J-213D01*
G02X618500Y454498I-4661J2922D01*
G02Y465502I0J5502D01*
G02X623161Y462923I0J-5501D01*
G03X623839I339J213D01*
G02X628500Y465502I4661J-2922D01*
G02Y454498I0J-5502D01*
G02X623839Y457077I0J5501D01*
G37*
G36*
G01X529561Y467423D02*
G03X530239I339J213D01*
G02X539561I4661J-2922D01*
G03X540239I339J213D01*
G02X544900Y470002I4661J-2922D01*
G02Y458998I0J-5502D01*
G02X540239Y461577I0J5501D01*
G03X539561I-339J-213D01*
G02X530239I-4661J2922D01*
G03X529561I-339J-213D01*
G02X524900Y458998I-4661J2922D01*
G02Y470002I0J5502D01*
G02X529561Y467423I0J-5501D01*
G37*
G36*
G01X497378Y497724D02*
G03X496622I-378J-130D01*
G02X490000Y492998I-6622J2276D01*
G02Y507002I0J7002D01*
G02X496622Y502276I0J-7002D01*
G03X497378I378J130D01*
G02X504000Y507002I6622J-2276D01*
G02Y492998I0J-7002D01*
G02X497378Y497724I0J7002D01*
G37*
G36*
G01X529378D02*
G03X528622I-378J-130D01*
G02X522000Y492998I-6622J2276D01*
G02Y507002I0J7002D01*
G02X528622Y502276I0J-7002D01*
G03X529378I378J130D01*
G02X536000Y507002I6622J-2276D01*
G02Y492998I0J-7002D01*
G02X529378Y497724I0J7002D01*
G37*
G54D16*
X650400Y324500D03*
X689700D03*
X650100Y400500D03*
X689400D03*
X651100Y474100D03*
X690400D03*
G54D19*
X410000Y475000D03*
Y325000D03*
X700000Y510000D03*
X705000Y275000D03*
G54D17*
X429000Y501800D03*
Y518200D03*
X451000D03*
Y501800D03*
X429000Y276800D03*
Y293200D03*
X451000D03*
Y276800D03*
X429000Y351800D03*
Y368200D03*
X451000D03*
Y351800D03*
X429000Y426800D03*
Y443200D03*
X451000D03*
Y426800D03*
G54D18*
X400300Y435300D03*
Y360300D03*
Y285300D03*
Y510300D03*
%LPD*%
G75*
G54D10*
X400300Y285300D03*
Y360300D03*
Y435300D03*
Y510300D03*
G54D11*
X410000Y325000D03*
Y475000D03*
X705000Y275000D03*
X700000Y510000D03*
G54D12*
X429000Y276800D03*
Y293200D03*
X451000D03*
Y276800D03*
X429000Y351800D03*
X451000D03*
X429000Y368200D03*
X451000D03*
X429000Y426800D03*
Y443200D03*
X451000D03*
Y426800D03*
X429000Y501800D03*
X451000D03*
X429000Y518200D03*
X451000D03*
G54D13*
X483700Y273800D03*
Y283800D03*
Y348800D03*
Y358800D03*
Y423800D03*
Y433800D03*
X513000Y274000D03*
Y284000D03*
Y348800D03*
Y358800D03*
Y423800D03*
Y433800D03*
X524800Y314200D03*
X534800D03*
X525100Y389400D03*
X535100D03*
X524900Y464500D03*
X534900D03*
X550000Y265000D03*
X560000D03*
X570000D03*
Y310000D03*
X544800Y314200D03*
X550000Y340000D03*
X560000D03*
X570000D03*
Y385000D03*
X545100Y389400D03*
X550000Y415000D03*
X560000D03*
X570000D03*
Y460000D03*
X544900Y464500D03*
X580000Y265000D03*
X590000D03*
X600000D03*
X580000Y310000D03*
X590000D03*
X580000Y340000D03*
X590000D03*
X600000D03*
X580000Y385000D03*
X590000D03*
X580000Y415000D03*
X590000D03*
X600000D03*
X580000Y460000D03*
X590000D03*
X610000Y265000D03*
X620000D03*
X630000D03*
X628600Y310200D03*
X618600D03*
X610000Y340000D03*
X620000D03*
X630000D03*
X628500Y385700D03*
X618500D03*
X610000Y415000D03*
X620000D03*
X630000D03*
X628500Y460000D03*
X618500D03*
X640000Y265000D03*
X650000D03*
X660000D03*
X650400Y324500D03*
X640000Y340000D03*
X650000D03*
X660000D03*
X650100Y400500D03*
X640000Y415000D03*
X650000D03*
X660000D03*
X651100Y474100D03*
X689700Y324500D03*
X689400Y400500D03*
X690400Y474100D03*
G54D14*
X504000Y500000D03*
X490000D03*
X536000D03*
X522000D03*
G54D15*
G01X451000Y269098D02*
Y276800D01*
G01D02*
Y284502D01*
G01X443298Y276800D02*
X451000D01*
G01D02*
X458702D01*
G01X451000Y285498D02*
Y293200D01*
G01D02*
Y300902D01*
G01X443298Y293200D02*
X451000D01*
G01D02*
X458702D01*
G01X451000Y344098D02*
Y351800D01*
G01D02*
Y359502D01*
G01X443298Y351800D02*
X451000D01*
G01D02*
X458702D01*
G01X451000Y360498D02*
Y368200D01*
G01D02*
Y375902D01*
G01X443298Y368200D02*
X451000D01*
G01D02*
X458702D01*
G01X451000Y419098D02*
Y426800D01*
G01D02*
Y434502D01*
G01X443298Y426800D02*
X451000D01*
G01D02*
X458702D01*
G01X451000Y435498D02*
Y443200D01*
G01D02*
Y450902D01*
G01X443298Y443200D02*
X451000D01*
G01D02*
X458702D01*
G01X429000Y494098D02*
Y501800D01*
G01D02*
Y509502D01*
G01X421298Y501800D02*
X429000D01*
G01D02*
X436702D01*
G01X429000Y510498D02*
Y518200D01*
G01D02*
Y525902D01*
G01X421298Y518200D02*
X429000D01*
G01D02*
X436702D01*
G01X477998Y283800D02*
X483700D01*
G01X477998Y358800D02*
X483700D01*
G01X477998Y433800D02*
X483700D01*
G01Y283800D02*
Y289502D01*
G01X507298Y284000D02*
X513000D01*
G01X483700Y283800D02*
X489402D01*
G01X483700Y358800D02*
Y364502D01*
G01X507298Y358800D02*
X513000D01*
G01X483700D02*
X489402D01*
G01X483700Y433800D02*
Y439502D01*
G01X507298Y433800D02*
X513000D01*
G01X483700D02*
X489402D01*
G01X513000Y284000D02*
Y289702D01*
G01Y284000D02*
X518702D01*
G01X513000Y358800D02*
Y364502D01*
G01Y358800D02*
X518702D01*
G01X513000Y433800D02*
Y439502D01*
G01Y433800D02*
X518702D01*
G01X600000Y259298D02*
Y265000D01*
G01D02*
Y270702D01*
G01X590000Y259298D02*
Y265000D01*
G01D02*
Y270702D01*
G01Y304298D02*
Y310000D01*
G01D02*
Y315702D01*
G01Y310000D02*
X595702D01*
G01X600000Y334298D02*
Y340000D01*
G01D02*
Y345702D01*
G01X590000Y334298D02*
Y340000D01*
G01D02*
Y345702D01*
G01Y379298D02*
Y385000D01*
G01D02*
Y390702D01*
G01Y385000D02*
X595702D01*
G01X600000Y409298D02*
Y415000D01*
G01D02*
Y420702D01*
G01X590000Y409298D02*
Y415000D01*
G01D02*
Y420702D01*
G01Y454298D02*
Y460000D01*
G01D02*
Y465702D01*
G01Y460000D02*
X595702D01*
G01X620000Y259298D02*
Y265000D01*
G01D02*
Y270702D01*
G01X610000Y259298D02*
Y265000D01*
G01D02*
Y270702D01*
G01X618600Y304498D02*
Y310200D01*
G01D02*
Y315902D01*
G01X612898Y310200D02*
X618600D01*
G01X620000Y334298D02*
Y340000D01*
G01D02*
Y345702D01*
G01X610000Y334298D02*
Y340000D01*
G01D02*
Y345702D01*
G01X618500Y379998D02*
Y385700D01*
G01D02*
Y391402D01*
G01X612798Y385700D02*
X618500D01*
G01X620000Y409298D02*
Y415000D01*
G01D02*
Y420702D01*
G01X610000Y409298D02*
Y415000D01*
G01D02*
Y420702D01*
G01X618500Y454298D02*
Y460000D01*
G01D02*
Y465702D01*
G01X612798Y460000D02*
X618500D01*
M02*
