G04 ================== begin FILE IDENTIFICATION RECORD ==================*
G04 Layout Name:  PowerBoardChina.brd*
G04 Film Name:    TOP_SOLDERMASK*
G04 File Format:  Gerber RS274X*
G04 File Origin:  Cadence Allegro -unreleased*
G04 Origin Date:  Sun Dec 18 15:03:40 2022*
G04 *
G04 Layer:  VIA CLASS/SOLDERMASK_TOP*
G04 Layer:  PIN/SOLDERMASK_TOP*
G04 Layer:  DRC ERROR CLASS/SOLDERMASK_TOP*
G04 *
G04 Offset:    (0.00 0.00)*
G04 Mirror:    No*
G04 Mode:      Positive*
G04 Rotation:  0*
G04 FullContactRelief:  No*
G04 UndefLineWidth:     4.00*
G04 ================== end FILE IDENTIFICATION RECORD ====================*
%FSLAX35Y35*MOIN*%
%IR0*IPPOS*OFA0.00000B0.00000*MIA0B0*SFA1.00000B1.00000*%
%ADD12C,.06*%
%ADD13C,.09*%
%ADD11C,.1*%
%ADD10C,.13*%
%LPD*%
G75*
G54D10*
X400300Y285300D03*
Y360300D03*
Y435300D03*
Y510300D03*
G54D11*
X429000Y276800D03*
Y293200D03*
X451000D03*
Y276800D03*
X429000Y351800D03*
X451000D03*
X429000Y368200D03*
X451000D03*
X429000Y426800D03*
Y443200D03*
X451000D03*
Y426800D03*
X429000Y501800D03*
X451000D03*
X429000Y518200D03*
X451000D03*
G54D12*
X483700Y273800D03*
Y283800D03*
Y348800D03*
Y358800D03*
Y423800D03*
Y433800D03*
X513000Y274000D03*
Y284000D03*
Y348800D03*
Y358800D03*
Y423800D03*
Y433800D03*
X524800Y314200D03*
X534800D03*
X525100Y389400D03*
X535100D03*
X524900Y464500D03*
X534900D03*
X550000Y265000D03*
X560000D03*
X570000D03*
Y310000D03*
X544800Y314200D03*
X550000Y340000D03*
X560000D03*
X570000D03*
Y385000D03*
X545100Y389400D03*
X550000Y415000D03*
X560000D03*
X570000D03*
Y460000D03*
X544900Y464500D03*
X580000Y265000D03*
X590000D03*
X600000D03*
X580000Y310000D03*
X590000D03*
X580000Y340000D03*
X590000D03*
X600000D03*
X580000Y385000D03*
X590000D03*
X580000Y415000D03*
X590000D03*
X600000D03*
X580000Y460000D03*
X590000D03*
X610000Y265000D03*
X620000D03*
X630000D03*
X628600Y310200D03*
X618600D03*
X610000Y340000D03*
X620000D03*
X630000D03*
X628500Y385700D03*
X618500D03*
X610000Y415000D03*
X620000D03*
X630000D03*
X628500Y460000D03*
X618500D03*
X640000Y265000D03*
X650000D03*
X660000D03*
X650400Y324500D03*
X640000Y340000D03*
X650000D03*
X660000D03*
X650100Y400500D03*
X640000Y415000D03*
X650000D03*
X660000D03*
X651100Y474100D03*
X689700Y324500D03*
X689400Y400500D03*
X690400Y474100D03*
G54D13*
X504000Y500000D03*
X490000D03*
X536000D03*
X522000D03*
M02*
